<svg xmlns="http://www.w3.org/2000/svg" xmlns:xlink="http://www.w3.org/1999/xlink" id="Layer_1" data-name="Layer 1" width="1387px" height="650px"><defs><filter id="selectionOverlayFilter" x="-25%" y="-25%" width="150%" height="150%"><feColorMatrix in="SourceGraphic" values="0 0 0 0 0 0 0 0 0 0 0 0 1 1 0 0 0 0 1 0 " result="cMatrixOut"/><feOffset in="cMatrixOut" result="offOut"/><feBlend in2="SourceGraphic" in="offOut" mode="normal"/></filter><filter id="hoveringOverlayFilter" x="-25%" y="-25%" width="150%" height="150%"><feColorMatrix in="SourceGraphic" values="1 0 0 1 0 0 1 0 1 0 0 0 0 0 0 0 0 0 1 0 " result="cMatrixOut"/><feOffset in="cMatrixOut" result="offOut"/><feBlend in2="SourceGraphic" in="offOut" mode="normal"/></filter><filter id="selectionFlaggingHoveringFilter" x="-25%" y="-25%" width="150%" height="150%"><feColorMatrix in="SourceGraphic" values="0 0 0 0 0 0 0 0 0 0 0 0 1 1 0 0 0 0 1 0 " result="cMatrixOut1"/><feMorphology in="cMatrixOut1" operator="dilate" radius="4" result="morphoOut1"/><feColorMatrix in="SourceGraphic" values="1 0 0 1 0 0 0 0 0 0 0 0 1 1 0 0 0 0 1 0 " result="cMatrixOut2"/><feMorphology in="cMatrixOut2" operator="dilate" radius="7" result="morphoOut2"/><feOffset in="SourceGraphic" result="offOut"/><feGaussianBlur in="offOut" stdDeviation="10" result="blurOut"/><feMerge result="mergeOut"><feMergeNode in="blurOut"/><feMergeNode in="morphoOut2"/><feMergeNode in="morphoOut1"/><feMergeNode in="SourceGraphic"/></feMerge></filter><filter id="selectionFlaggingFilter" x="-25%" y="-25%" width="150%" height="150%"><feColorMatrix in="SourceGraphic" values="0 0 0 0 0 0 0 0 0 0 0 0 1 1 0 0 0 0 1 0 " result="cMatrixOut1"/><feMorphology in="cMatrixOut1" operator="dilate" radius="4" result="morphoOut1"/><feColorMatrix in="SourceGraphic" values="1 0 0 1 0 0 0 0 0 0 0 0 1 1 0 0 0 0 1 0 " result="cMatrixOut2"/><feMorphology in="cMatrixOut2" operator="dilate" radius="7" result="morphoOut2"/><feMerge result="mergeOut"><feMergeNode in="morphoOut2"/><feMergeNode in="morphoOut1"/><feMergeNode in="SourceGraphic"/></feMerge></filter><filter id="flaggingHoveringFilter" x="-25%" y="-25%" width="150%" height="150%"><feColorMatrix in="SourceGraphic" values="1 0 0 1 0 0 0 0 0 0 0 0 1 1 0 0 0 0 1 0 " result="cMatrixOut"/><feMorphology in="cMatrixOut" operator="dilate" radius="4" result="morphoOut"/><feMerge result="mergeOut"><feMergeNode in="morphoOut"/><feMergeNode in="SourceGraphic"/></feMerge><feOffset in="SourceGraphic" result="offOut"/><feGaussianBlur in="offOut" stdDeviation="10" result="blurOut"/><feMerge><feMergeNode in="blurOut"/><feMergeNode in="mergeOut"/></feMerge></filter><filter id="selectionHoveredFilter" x="-25%" y="-25%" width="150%" height="150%"><feColorMatrix in="SourceGraphic" values="0 0 0 0 0 0 0 0 0 0 0 0 1 1 0 0 0 0 1 0 " result="cMatrixOut"/><feMorphology in="cMatrixOut" operator="dilate" radius="4" result="morphoOut"/><feMerge result="mergeOut"><feMergeNode in="morphoOut"/><feMergeNode in="SourceGraphic"/></feMerge><feOffset in="SourceGraphic" result="offOut"/><feGaussianBlur in="offOut" stdDeviation="10" result="blurOut"/><feMerge><feMergeNode in="blurOut"/><feMergeNode in="mergeOut"/></feMerge></filter><filter id="flaggingFilter" x="-25%" y="-25%" width="150%" height="150%"><feColorMatrix in="SourceGraphic" values="1 0 0 1 0 0 0 0 0 0 0 0 1 1 0 0 0 0 1 0 " result="cMatrixOut"/><feMorphology in="cMatrixOut" operator="dilate" radius="4" result="morphoOut"/><feMerge result="mergeOut"><feMergeNode in="morphoOut"/><feMergeNode in="SourceGraphic"/></feMerge></filter><filter id="selectionFilter" x="-25%" y="-25%" width="150%" height="150%"><feColorMatrix in="SourceGraphic" values="0 0 0 0 0 0 0 0 0 0 0 0 1 1 0 0 0 0 1 0 " result="cMatrixOut"/><feMorphology in="cMatrixOut" operator="dilate" radius="4" result="morphoOut"/><feMerge result="mergeOut"><feMergeNode in="morphoOut"/><feMergeNode in="SourceGraphic"/></feMerge></filter><filter id="hoveringFilter" x="-25%" y="-25%" width="150%" height="150%"><feOffset in="SourceGraphic" result="offOut"/><feGaussianBlur in="offOut" stdDeviation="10" result="blurOut"/><feMerge result="mergeOut"><feMergeNode in="blurOut"/><feMergeNode in="SourceGraphic"/></feMerge></filter><style>.cls-1{fill:url(#radial-gradient);}.cls-2{fill:url(#radial-gradient-2);}.cls-3{fill:url(#radial-gradient-3);}.cls-4{fill:url(#radial-gradient-4);}.cls-5{fill:url(#radial-gradient-5);}.cls-6{fill:url(#radial-gradient-6);}.cls-7{fill:url(#radial-gradient-7);}.cls-8{fill:#0052af;}.cls-10,.cls-105,.cls-106,.cls-107,.cls-108,.cls-109,.cls-11,.cls-58,.cls-59,.cls-60,.cls-61,.cls-9{fill:none;}.cls-10,.cls-11,.cls-9{stroke-miterlimit:10;stroke-width:11px;}.cls-9{stroke:url(#linear-gradient);}.cls-10{stroke:url(#linear-gradient-2);}.cls-11{stroke:url(#linear-gradient-3);}.cls-12{fill:url(#linear-gradient-4);}.cls-13{fill:url(#linear-gradient-5);}.cls-14{fill:url(#linear-gradient-6);}.cls-15{fill:url(#linear-gradient-7);}.cls-113,.cls-116,.cls-143,.cls-151,.cls-153,.cls-16,.cls-37,.cls-64{opacity:0.5;}.cls-17{fill:#2f9ec2;}.cls-18{fill:#d1eaf2;}.cls-19{fill:#9bd1e2;}.cls-20{fill:#80c4da;}.cls-21{fill:#65b7d2;}.cls-22{fill:#4aabca;}.cls-23,.cls-41,.cls-44{fill:#fff;}.cls-23,.cls-42{opacity:0;}.cls-24,.cls-44{isolation:isolate;}.cls-25{fill:url(#radial-gradient-8);}.cls-26{fill:#5656a5;}.cls-27{fill:url(#linear-gradient-8);}.cls-28{fill:url(#linear-gradient-9);}.cls-29{fill:url(#linear-gradient-10);}.cls-30{fill:url(#linear-gradient-11);}.cls-31{fill:url(#linear-gradient-12);}.cls-32{fill:url(#linear-gradient-13);}.cls-33{fill:url(#linear-gradient-14);}.cls-34{fill:url(#linear-gradient-15);}.cls-35{fill:url(#linear-gradient-16);}.cls-115,.cls-121,.cls-122,.cls-148,.cls-149,.cls-36,.cls-39,.cls-66{opacity:0.7;}.cls-37{fill:url(#linear-gradient-17);}.cls-38{fill:url(#radial-gradient-9);}.cls-39{fill:url(#radial-gradient-10);}.cls-40{fill:#0f82bc;}.cls-41{font-size:12px;}.cls-41,.cls-44{font-family:Arial-BoldMT, Arial;font-weight:700;}.cls-43{fill:#c6c6c6;}.cls-44{font-size:9px;}.cls-45{fill:url(#linear-gradient-18);}.cls-46{fill:url(#linear-gradient-19);}.cls-47{opacity:0.85;}.cls-48{fill:url(#linear-gradient-20);}.cls-49{fill:url(#linear-gradient-21);}.cls-50{fill:url(#linear-gradient-22);}.cls-51{fill:url(#linear-gradient-23);}.cls-52{fill:url(#linear-gradient-24);}.cls-53{fill:url(#linear-gradient-25);}.cls-54{fill:url(#linear-gradient-26);}.cls-55{fill:url(#linear-gradient-27);}.cls-56{fill:url(#linear-gradient-28);}.cls-57{fill:url(#linear-gradient-29);}.cls-105,.cls-106,.cls-107,.cls-58{stroke:#395b2c;}.cls-105,.cls-106,.cls-107,.cls-108,.cls-109,.cls-58,.cls-59,.cls-60,.cls-61{stroke-linecap:round;stroke-linejoin:round;}.cls-58,.cls-61{stroke-dasharray:4 5;}.cls-108,.cls-109,.cls-59,.cls-60,.cls-61{stroke:#5b2c2c;}.cls-60{stroke-dasharray:4.2026 5.2533;}.cls-62{fill:url(#radial-gradient-11);}.cls-63{fill:url(#radial-gradient-12);}.cls-64{fill:url(#linear-gradient-30);}.cls-65{fill:url(#radial-gradient-13);}.cls-66{fill:url(#radial-gradient-14);}.cls-67{fill:url(#linear-gradient-31);}.cls-68{fill:url(#linear-gradient-32);}.cls-69{fill:url(#linear-gradient-33);}.cls-70{fill:url(#linear-gradient-34);}.cls-71{fill:url(#linear-gradient-35);}.cls-72{fill:url(#linear-gradient-36);}.cls-73{fill:url(#linear-gradient-37);}.cls-74{fill:url(#linear-gradient-38);}.cls-75{fill:url(#linear-gradient-39);}.cls-76{fill:url(#linear-gradient-40);}.cls-77{fill:url(#linear-gradient-41);}.cls-78{fill:url(#linear-gradient-42);}.cls-79{fill:url(#linear-gradient-43);}.cls-80{fill:url(#linear-gradient-44);}.cls-81{fill:url(#linear-gradient-45);}.cls-82{fill:url(#linear-gradient-46);}.cls-83{fill:url(#linear-gradient-47);}.cls-84{fill:url(#linear-gradient-48);}.cls-85{fill:url(#linear-gradient-49);}.cls-86{fill:url(#linear-gradient-50);}.cls-87{fill:url(#linear-gradient-51);}.cls-88{fill:url(#linear-gradient-52);}.cls-89{fill:url(#linear-gradient-53);}.cls-90{fill:url(#linear-gradient-54);}.cls-91{fill:url(#radial-gradient-15);}.cls-92{fill:url(#linear-gradient-55);}.cls-93{fill:url(#linear-gradient-56);}.cls-94{fill:url(#linear-gradient-57);}.cls-95{fill:url(#linear-gradient-58);}.cls-96{fill:url(#linear-gradient-59);}.cls-97{fill:url(#linear-gradient-60);}.cls-98{fill:url(#linear-gradient-61);}.cls-99{fill:url(#linear-gradient-62);}.cls-100{fill:url(#linear-gradient-63);}.cls-101{fill:url(#linear-gradient-64);}.cls-102{fill:url(#linear-gradient-65);}.cls-103{fill:url(#linear-gradient-66);}.cls-104{fill:url(#radial-gradient-16);}.cls-106{stroke-dasharray:3.8244 4.7805;}.cls-107{stroke-dasharray:3.8627 4.8283;}.cls-108{stroke-dasharray:4.0067 5.0083;}.cls-109{stroke-dasharray:3.8208 4.7759;}.cls-110{fill:url(#radial-gradient-17);}.cls-111{fill:url(#radial-gradient-18);}.cls-112{fill:url(#linear-gradient-67);}.cls-113{fill:url(#linear-gradient-68);}.cls-114{fill:url(#radial-gradient-19);}.cls-115{fill:url(#radial-gradient-20);}.cls-116{fill:url(#linear-gradient-69);}.cls-117{mask:url(#mask);}.cls-118{fill:url(#radial-gradient-21);}.cls-119{mask:url(#mask-2);}.cls-120{fill:url(#radial-gradient-22);}.cls-121{fill:url(#radial-gradient-23);}.cls-122{fill:url(#radial-gradient-24);}.cls-123{fill:url(#radial-gradient-25);}.cls-124{fill:url(#linear-gradient-70);}.cls-125{fill:url(#linear-gradient-71);}.cls-126{fill:url(#linear-gradient-72);}.cls-127{fill:url(#linear-gradient-73);}.cls-128{fill:url(#linear-gradient-74);}.cls-129{fill:url(#linear-gradient-75);}.cls-130{fill:url(#linear-gradient-76);}.cls-131{fill:url(#linear-gradient-77);}.cls-132{fill:url(#linear-gradient-78);}.cls-133{fill:url(#radial-gradient-26);}.cls-134{fill:url(#linear-gradient-79);}.cls-135{fill:url(#linear-gradient-80);}.cls-136{fill:url(#linear-gradient-81);}.cls-137{fill:url(#linear-gradient-82);}.cls-138{fill:url(#linear-gradient-83);}.cls-139{fill:url(#linear-gradient-84);}.cls-140{fill:url(#linear-gradient-85);}.cls-141{fill:url(#linear-gradient-86);}.cls-142{fill:url(#linear-gradient-87);}.cls-143{fill:url(#linear-gradient-88);}.cls-144{mask:url(#mask-3);}.cls-145{fill:url(#radial-gradient-27);}.cls-146{mask:url(#mask-4);}.cls-147{fill:url(#radial-gradient-28);}.cls-148{fill:url(#radial-gradient-29);}.cls-149{fill:url(#radial-gradient-30);}.cls-150{mask:url(#mask-5);}.cls-151{fill:url(#radial-gradient-31);}.cls-152{mask:url(#mask-6);}.cls-153{fill:url(#radial-gradient-32);}.ST-OVERLAY-TEXT, .ST-OVERLAY-TEXT &gt; * { fill: #000000 !important; stroke:#000000; stroke-width:0.5px }.ST-ANALYSIS-INFO{ opacity: 1 !important; -webkit-transition: all .9s ease-in-out;  -moz-transition: all .9s ease-in-out; transition: all .9s ease-in-out;}</style><radialGradient id="radial-gradient" cx="770.7285" cy="319.0482" r="108.095" gradientUnits="userSpaceOnUse"><stop offset="0.7136"/><stop offset="1" stop-color="#fff"/></radialGradient><radialGradient id="radial-gradient-2" cx="868.2615" cy="339.2062" r="108.0789" gradientUnits="userSpaceOnUse"><stop offset="0.7307"/><stop offset="0.7326" stop-color="#090909"/><stop offset="0.7435" stop-color="#373737"/><stop offset="0.7557" stop-color="#626262"/><stop offset="0.7689" stop-color="#888"/><stop offset="0.7832" stop-color="#a8a8a8"/><stop offset="0.799" stop-color="#c4c4c4"/><stop offset="0.8169" stop-color="#dadada"/><stop offset="0.8377" stop-color="#ebebeb"/><stop offset="0.8635" stop-color="#f6f6f6"/><stop offset="0.8996" stop-color="#fdfdfd"/><stop offset="1" stop-color="#fff"/></radialGradient><radialGradient id="radial-gradient-3" cx="1083.6488" cy="322.1157" r="112.7625" gradientUnits="userSpaceOnUse"><stop offset="0.9508"/><stop offset="0.9521" stop-color="#070707"/><stop offset="0.9761" stop-color="#8b8b8b"/><stop offset="0.9926" stop-color="#dedede"/><stop offset="1" stop-color="#fff"/></radialGradient><radialGradient id="radial-gradient-4" cx="1222.7575" cy="344.6474" r="108.0789" gradientUnits="userSpaceOnUse"><stop offset="0.7075"/><stop offset="0.7422" stop-color="#393939"/><stop offset="0.7788" stop-color="#6d6d6d"/><stop offset="0.816" stop-color="#999"/><stop offset="0.8532" stop-color="#bebebe"/><stop offset="0.8902" stop-color="#dbdbdb"/><stop offset="0.927" stop-color="#efefef"/><stop offset="0.9637" stop-color="#fbfbfb"/><stop offset="1" stop-color="#fff"/></radialGradient><radialGradient id="radial-gradient-5" cx="976.1702" cy="347.6109" r="11.739" gradientTransform="matrix(1.6361, -0.0199, 0.1162, 3.5719, -474.4079, -874.6329)" gradientUnits="userSpaceOnUse"><stop offset="0" stop-color="#fff"/><stop offset="0.1035" stop-color="#fafafa"/><stop offset="0.2271" stop-color="#ebebeb"/><stop offset="0.3611" stop-color="#d3d3d3"/><stop offset="0.5025" stop-color="#b2b2b2"/><stop offset="0.6496" stop-color="#868686"/><stop offset="0.8016" stop-color="#515151"/><stop offset="0.9547" stop-color="#141414"/><stop offset="1"/></radialGradient><radialGradient id="radial-gradient-6" cx="212.0438" cy="266.0158" fx="201.33934148080263" r="58.866" gradientTransform="matrix(0.9992, -0.0284, 0.0054, 0.0932, 949.2742, 322.1806)" gradientUnits="userSpaceOnUse"><stop offset="0" stop-color="#fff"/><stop offset="0.1563" stop-color="#bfbfbf"/><stop offset="0.3134" stop-color="#858585"/><stop offset="0.4659" stop-color="#565656"/><stop offset="0.6097" stop-color="#303030"/><stop offset="0.7428" stop-color="#161616"/><stop offset="0.8612" stop-color="#060606"/><stop offset="0.9529"/></radialGradient><radialGradient id="radial-gradient-7" cx="679.707" cy="381.0813" r="627.2364" gradientTransform="translate(0 155.5658) scale(1 0.5918)" gradientUnits="userSpaceOnUse"><stop offset="0.001" stop-color="#d7cdb5"/><stop offset="0.1792" stop-color="#d8ceb6" stop-opacity="0.9854"/><stop offset="0.3194" stop-color="#d9d0b9" stop-opacity="0.9395"/><stop offset="0.4467" stop-color="#ddd4bf" stop-opacity="0.8619"/><stop offset="0.5664" stop-color="#e1d9c7" stop-opacity="0.7525"/><stop offset="0.6807" stop-color="#e7e0d2" stop-opacity="0.6112"/><stop offset="0.791" stop-color="#ede9df" stop-opacity="0.4378"/><stop offset="0.896" stop-color="#f6f3ee" stop-opacity="0.2363"/><stop offset="0.9982" stop-color="#fff" stop-opacity="0.0045"/><stop offset="1" stop-color="#fff" stop-opacity="0"/></radialGradient><linearGradient id="linear-gradient" x1="252.7527" y1="343.6986" x2="275.4491" y2="343.6986" gradientUnits="userSpaceOnUse"><stop offset="0" stop-color="#9cdaff"/><stop offset="1" stop-color="#0052af"/></linearGradient><linearGradient id="linear-gradient-2" x1="460.6774" y1="343.6986" x2="483.374" y2="343.6986" xlink:href="#linear-gradient"/><linearGradient id="linear-gradient-3" x1="668.6023" y1="343.6986" x2="691.6966" y2="343.6986" xlink:href="#linear-gradient"/><linearGradient id="linear-gradient-4" x1="979.3751" y1="339.2327" x2="1007.649" y2="345.5384" xlink:href="#linear-gradient"/><linearGradient id="linear-gradient-5" x1="952.3507" y1="340.8449" x2="979.3685" y2="347.8797" xlink:href="#linear-gradient"/><linearGradient id="linear-gradient-6" x1="966.6938" y1="333.7386" x2="993.2746" y2="352.0953" gradientUnits="userSpaceOnUse"><stop offset="0" stop-color="#9cdaff"/><stop offset="0.0861" stop-color="#87c8f4"/><stop offset="0.3041" stop-color="#579edc"/><stop offset="0.5113" stop-color="#317dc8"/><stop offset="0.7022" stop-color="#1665ba"/><stop offset="0.871" stop-color="#0657b2"/><stop offset="1" stop-color="#0052af"/></linearGradient><linearGradient id="linear-gradient-7" x1="980.0696" y1="343.5588" x2="954.6849" y2="342.7588" gradientUnits="userSpaceOnUse"><stop offset="0" stop-color="#0052af"/><stop offset="1" stop-color="#9cdaff"/></linearGradient><radialGradient id="radial-gradient-8" cx="147.4633" cy="1054.652" r="52.3828" gradientTransform="translate(0 -737.89)" gradientUnits="userSpaceOnUse"><stop offset="0" stop-color="#afbaf7"/><stop offset="0.3111" stop-color="#6d96ce"/><stop offset="0.8032" stop-color="#285fcc"/></radialGradient><linearGradient id="linear-gradient-8" x1="144.8412" y1="328.4388" x2="166.6177" y2="328.4388" gradientUnits="userSpaceOnUse"><stop offset="0" stop-color="#e36023"/><stop offset="0.0795" stop-color="#d7591f"/><stop offset="0.3452" stop-color="#b34613"/><stop offset="0.595" stop-color="#9a380a"/><stop offset="0.8204" stop-color="#8a2f05"/><stop offset="1" stop-color="#852c03"/></linearGradient><linearGradient id="linear-gradient-9" x1="149.4015" y1="328.3916" x2="194.0056" y2="328.3916" gradientUnits="userSpaceOnUse"><stop offset="0" stop-color="#8776e3"/><stop offset="0.9995" stop-color="#170385"/></linearGradient><linearGradient id="linear-gradient-10" x1="178.7221" y1="331.802" x2="192.7409" y2="331.802" xlink:href="#linear-gradient-8"/><linearGradient id="linear-gradient-11" x1="137.8559" y1="348.6401" x2="181.3082" y2="348.6401" xlink:href="#linear-gradient-9"/><linearGradient id="linear-gradient-12" x1="135.1434" y1="354.1139" x2="163.3442" y2="354.1139" xlink:href="#linear-gradient-8"/><linearGradient id="linear-gradient-13" x1="125.8895" y1="346.8233" x2="156.7455" y2="346.8233" xlink:href="#linear-gradient-9"/><linearGradient id="linear-gradient-14" x1="129.569" y1="324.8433" x2="143.7137" y2="324.8433" xlink:href="#linear-gradient-8"/><linearGradient id="linear-gradient-15" x1="141.1273" y1="316.5096" x2="169.43" y2="316.5096" xlink:href="#linear-gradient-9"/><linearGradient id="linear-gradient-16" x1="166.8442" y1="326.0692" x2="190.2173" y2="326.0692" xlink:href="#linear-gradient-9"/><linearGradient id="linear-gradient-17" x1="166.252" y1="267.783" x2="166.252" y2="418.6364" gradientUnits="userSpaceOnUse"><stop offset="0" stop-color="#998abd"/><stop offset="0.5" stop-color="#70658a"/><stop offset="1" stop-color="#372e4a"/></linearGradient><radialGradient id="radial-gradient-9" cx="144.2359" cy="318.2089" r="108.095" gradientUnits="userSpaceOnUse"><stop offset="0.5669" stop-color="#cacacc" stop-opacity="0"/><stop offset="0.888" stop-color="#4e3b4d" stop-opacity="0.7068"/><stop offset="1" stop-color="#1a0018"/></radialGradient><radialGradient id="radial-gradient-10" cx="144.2359" cy="318.2089" r="108.095" gradientUnits="userSpaceOnUse"><stop offset="0" stop-color="#fdfdff"/><stop offset="1" stop-color="#cacacc" stop-opacity="0"/></radialGradient><linearGradient id="linear-gradient-18" x1="313.6584" y1="351.0911" x2="334.5364" y2="371.9691" gradientTransform="translate(768.2417 19.8881) rotate(90)" xlink:href="#linear-gradient-9"/><linearGradient id="linear-gradient-19" x1="316.1049" y1="323.8215" x2="332.0898" y2="339.8064" gradientTransform="translate(768.2417 19.8881) rotate(90)" xlink:href="#linear-gradient-9"/><linearGradient id="linear-gradient-20" x1="331.1872" y1="423.5147" x2="355.7496" y2="448.077" gradientTransform="matrix(0, 1, 1, 0, -30.9846, 19.8881)" xlink:href="#linear-gradient-9"/><linearGradient id="linear-gradient-21" x1="334.0655" y1="391.4328" x2="352.8713" y2="410.2386" gradientTransform="matrix(0, 1, 1, 0, -30.9846, 19.8881)" xlink:href="#linear-gradient-9"/><linearGradient id="linear-gradient-22" x1="350.6795" y1="415.4409" x2="378.9031" y2="443.6645" gradientTransform="matrix(0, 1, 1, 0, -57.322, 19.8881)" xlink:href="#linear-gradient-9"/><linearGradient id="linear-gradient-23" x1="353.9868" y1="378.5769" x2="375.5958" y2="400.1859" gradientTransform="matrix(0, 1, 1, 0, -57.322, 19.8881)" xlink:href="#linear-gradient-9"/><linearGradient id="linear-gradient-24" x1="275.0201" y1="369.8743" x2="292.9409" y2="387.7951" gradientTransform="translate(768.2417 19.8881) rotate(90)" xlink:href="#linear-gradient-8"/><linearGradient id="linear-gradient-25" x1="277.1201" y1="346.4671" x2="290.8409" y2="360.188" gradientTransform="translate(768.2417 19.8881) rotate(90)" gradientUnits="userSpaceOnUse"><stop offset="0" stop-color="#e36023"/><stop offset="0.9995" stop-color="#852c03"/></linearGradient><linearGradient id="linear-gradient-26" x1="289.4471" y1="400.7298" x2="314.0094" y2="425.2921" gradientTransform="matrix(0, 1, 1, 0, -30.9846, 19.8881)" xlink:href="#linear-gradient-8"/><linearGradient id="linear-gradient-27" x1="292.3254" y1="368.6479" x2="311.1312" y2="387.4537" gradientTransform="matrix(0, 1, 1, 0, -30.9846, 19.8881)" xlink:href="#linear-gradient-25"/><linearGradient id="linear-gradient-28" x1="308.9551" y1="431.4835" x2="337.1787" y2="459.7071" gradientTransform="translate(768.2417 19.8881) rotate(90)" xlink:href="#linear-gradient-8"/><linearGradient id="linear-gradient-29" x1="312.2624" y1="394.6195" x2="333.8714" y2="416.2285" xlink:href="#linear-gradient-25"/><radialGradient id="radial-gradient-11" cx="370.9664" cy="280.9927" r="5.735" gradientUnits="userSpaceOnUse"><stop offset="0" stop-color="#87a76b"/><stop offset="0.9995" stop-color="#395b2c"/></radialGradient><radialGradient id="radial-gradient-12" cx="371.8721" cy="402.8541" r="5.735" gradientUnits="userSpaceOnUse"><stop offset="0" stop-color="#a76b6b"/><stop offset="0.9995" stop-color="#5b2c2c"/></radialGradient><linearGradient id="linear-gradient-30" x1="374.1767" y1="267.783" x2="374.1767" y2="418.6364" xlink:href="#linear-gradient-17"/><radialGradient id="radial-gradient-13" cx="352.1606" cy="318.2089" r="108.095" xlink:href="#radial-gradient-9"/><radialGradient id="radial-gradient-14" cx="352.1606" cy="318.2089" r="108.095" xlink:href="#radial-gradient-10"/><linearGradient id="linear-gradient-31" x1="260.1163" y1="84.4333" x2="275.7786" y2="100.0956" gradientTransform="translate(428.5349 94.5141) rotate(45)" xlink:href="#linear-gradient-8"/><linearGradient id="linear-gradient-32" x1="261.9517" y1="63.9761" x2="273.9433" y2="75.9677" gradientTransform="translate(428.5349 94.5141) rotate(45)" xlink:href="#linear-gradient-25"/><linearGradient id="linear-gradient-33" x1="266.1206" y1="696.6329" x2="287.5873" y2="718.0996" gradientTransform="matrix(0.7071, 0.7071, 0.7071, -0.7071, -136.6034, 659.6524)" xlink:href="#linear-gradient-8"/><linearGradient id="linear-gradient-34" x1="268.6361" y1="668.5942" x2="285.0718" y2="685.0299" gradientTransform="matrix(0.7071, 0.7071, 0.7071, -0.7071, -136.6034, 659.6524)" xlink:href="#linear-gradient-25"/><linearGradient id="linear-gradient-35" x1="276.3943" y1="103.9298" x2="301.0608" y2="128.5964" gradientTransform="translate(428.5349 94.5141) rotate(45)" xlink:href="#linear-gradient-8"/><linearGradient id="linear-gradient-36" x1="279.2847" y1="71.7117" x2="298.1704" y2="90.5973" gradientTransform="translate(428.5349 94.5141) rotate(45)" xlink:href="#linear-gradient-25"/><linearGradient id="linear-gradient-37" x1="268.1103" y1="37.7396" x2="286.357" y2="55.9863" gradientTransform="translate(428.5349 94.5141) rotate(45)" xlink:href="#linear-gradient-9"/><linearGradient id="linear-gradient-38" x1="270.2485" y1="13.9067" x2="284.2188" y2="27.8771" gradientTransform="translate(428.5349 94.5141) rotate(45)" xlink:href="#linear-gradient-9"/><linearGradient id="linear-gradient-39" x1="277.1125" y1="773.0661" x2="298.5793" y2="794.5329" gradientTransform="matrix(0.7071, 0.7071, 0.7071, -0.7071, -136.6034, 659.6524)" xlink:href="#linear-gradient-9"/><linearGradient id="linear-gradient-40" x1="279.628" y1="745.0275" x2="296.0638" y2="761.4632" gradientTransform="matrix(0.7071, 0.7071, 0.7071, -0.7071, -136.6034, 659.6524)" xlink:href="#linear-gradient-9"/><linearGradient id="linear-gradient-41" x1="288.4789" y1="52.9828" x2="313.1455" y2="77.6494" gradientTransform="translate(428.5349 94.5141) rotate(45)" xlink:href="#linear-gradient-9"/><linearGradient id="linear-gradient-42" x1="291.3694" y1="20.7647" x2="310.255" y2="39.6504" gradientTransform="translate(428.5349 94.5141) rotate(45)" xlink:href="#linear-gradient-9"/><linearGradient id="linear-gradient-43" x1="660.0346" y1="132.1624" x2="679.7215" y2="151.8493" gradientTransform="matrix(-0.7071, 0.7071, 0.7071, 0.7071, 1151.354, -171.4493)" xlink:href="#linear-gradient-8"/><linearGradient id="linear-gradient-44" x1="709.8011" y1="138.5806" x2="722.0417" y2="150.8213" gradientTransform="matrix(-0.7071, -0.7071, -0.7071, 0.7071, 1383.0689, 782.2586)" xlink:href="#linear-gradient-25"/><linearGradient id="linear-gradient-45" x1="637.4369" y1="97.1315" x2="657.1238" y2="116.8184" gradientTransform="matrix(-0.7071, 0.7071, 0.7071, 0.7071, 1160.1414, -150.2348)" xlink:href="#linear-gradient-8"/><linearGradient id="linear-gradient-46" x1="714.5477" y1="146.5502" x2="726.7884" y2="158.7909" gradientTransform="matrix(-0.7071, -0.7071, -0.7071, 0.7071, 1392.1045, 760.4446)" xlink:href="#linear-gradient-25"/><linearGradient id="linear-gradient-47" x1="623.6236" y1="83.3181" x2="643.3105" y2="103.005" gradientTransform="matrix(-0.7071, 0.7071, 0.7071, 0.7071, 1160.1414, -150.2348)" xlink:href="#linear-gradient-8"/><linearGradient id="linear-gradient-48" x1="728.3611" y1="132.7369" x2="740.6017" y2="144.9775" gradientTransform="matrix(-0.7071, -0.7071, -0.7071, 0.7071, 1392.1045, 760.4446)" xlink:href="#linear-gradient-25"/><linearGradient id="linear-gradient-49" x1="691.0441" y1="103.083" x2="710.731" y2="122.7699" gradientTransform="matrix(-0.7071, 0.7071, 0.7071, 0.7071, 1194.2973, -270.4893)" xlink:href="#linear-gradient-9"/><linearGradient id="linear-gradient-50" x1="791.9742" y1="108.7918" x2="804.2149" y2="121.0324" gradientTransform="matrix(-0.7071, -0.7071, -0.7071, 0.7071, 1420.527, 763.7525)" xlink:href="#linear-gradient-9"/><linearGradient id="linear-gradient-51" x1="695.7961" y1="94.9755" x2="715.483" y2="114.6624" gradientTransform="matrix(-0.7071, 0.7071, 0.7071, 0.7071, 1203.3718, -248.5815)" xlink:href="#linear-gradient-9"/><linearGradient id="linear-gradient-52" x1="769.3263" y1="143.7724" x2="781.5669" y2="156.0131" gradientTransform="matrix(-0.7071, -0.7071, -0.7071, 0.7071, 1429.3143, 742.538)" xlink:href="#linear-gradient-9"/><linearGradient id="linear-gradient-53" x1="709.6095" y1="108.7889" x2="729.2964" y2="128.4757" gradientTransform="matrix(-0.7071, 0.7071, 0.7071, 0.7071, 1203.3718, -248.5815)" xlink:href="#linear-gradient-9"/><linearGradient id="linear-gradient-54" x1="755.5129" y1="157.5858" x2="767.7536" y2="169.8264" gradientTransform="matrix(-0.7071, -0.7071, -0.7071, 0.7071, 1429.3143, 742.538)" xlink:href="#linear-gradient-9"/><radialGradient id="radial-gradient-15" cx="817.126" cy="461.6316" r="5.735" gradientTransform="translate(266.4633 1158.3538) rotate(-90)" xlink:href="#radial-gradient-11"/><linearGradient id="linear-gradient-55" x1="763.6512" y1="28.5458" x2="783.3381" y2="48.2327" gradientTransform="translate(359.5203 -171.4493) rotate(45)" xlink:href="#linear-gradient-8"/><linearGradient id="linear-gradient-56" x1="813.4176" y1="242.1972" x2="825.6583" y2="254.4378" gradientTransform="translate(127.8054 782.2586) rotate(-45)" xlink:href="#linear-gradient-25"/><linearGradient id="linear-gradient-57" x1="741.0535" y1="-6.4851" x2="760.7404" y2="13.2018" gradientTransform="translate(350.733 -150.2348) rotate(45)" xlink:href="#linear-gradient-8"/><linearGradient id="linear-gradient-58" x1="818.1643" y1="250.1668" x2="830.4049" y2="262.4075" gradientTransform="translate(118.7698 760.4446) rotate(-45)" xlink:href="#linear-gradient-25"/><linearGradient id="linear-gradient-59" x1="727.2402" y1="-20.2984" x2="746.927" y2="-0.6116" gradientTransform="translate(350.733 -150.2348) rotate(45)" xlink:href="#linear-gradient-8"/><linearGradient id="linear-gradient-60" x1="831.9777" y1="236.3535" x2="844.2183" y2="248.5941" gradientTransform="translate(118.7698 760.4446) rotate(-45)" xlink:href="#linear-gradient-25"/><linearGradient id="linear-gradient-61" x1="794.6607" y1="-0.5336" x2="814.3476" y2="19.1533" gradientTransform="translate(316.5771 -270.4893) rotate(45)" xlink:href="#linear-gradient-9"/><linearGradient id="linear-gradient-62" x1="895.5908" y1="212.4083" x2="907.8314" y2="224.649" gradientTransform="translate(90.3474 763.7525) rotate(-45)" xlink:href="#linear-gradient-9"/><linearGradient id="linear-gradient-63" x1="799.4127" y1="-8.6411" x2="819.0996" y2="11.0458" gradientTransform="translate(307.5026 -248.5815) rotate(45)" xlink:href="#linear-gradient-9"/><linearGradient id="linear-gradient-64" x1="872.9429" y1="247.389" x2="885.1835" y2="259.6296" gradientTransform="translate(81.56 742.538) rotate(-45)" xlink:href="#linear-gradient-9"/><linearGradient id="linear-gradient-65" x1="813.2261" y1="5.1723" x2="832.913" y2="24.8592" gradientTransform="translate(307.5026 -248.5815) rotate(45)" xlink:href="#linear-gradient-9"/><linearGradient id="linear-gradient-66" x1="859.1295" y1="261.2024" x2="871.3702" y2="273.443" gradientTransform="translate(81.56 742.538) rotate(-45)" xlink:href="#linear-gradient-9"/><radialGradient id="radial-gradient-16" cx="817.126" cy="315.0957" r="5.735" gradientTransform="matrix(0, -1, -1, 0, 1244.411, 1158.3538)" xlink:href="#radial-gradient-12"/><radialGradient id="radial-gradient-17" cx="618.8777" cy="295.6383" r="5.735" gradientTransform="translate(-105.9077 531.6077) rotate(-45)" xlink:href="#radial-gradient-11"/><radialGradient id="radial-gradient-18" cx="621.0774" cy="416.4351" r="5.7339" gradientTransform="translate(-105.9077 531.6077) rotate(-45)" xlink:href="#radial-gradient-12"/><linearGradient id="linear-gradient-67" x1="569.2908" y1="330.1331" x2="593.866" y2="355.2368" gradientUnits="userSpaceOnUse"><stop offset="0" stop-color="#998abd" stop-opacity="0.1"/><stop offset="0.9995" stop-color="#372e4a"/></linearGradient><linearGradient id="linear-gradient-68" x1="582.1016" y1="267.75" x2="582.1016" y2="418.6034" xlink:href="#linear-gradient-17"/><radialGradient id="radial-gradient-19" cx="560.0855" cy="318.1759" r="108.095" xlink:href="#radial-gradient-9"/><radialGradient id="radial-gradient-20" cx="560.0855" cy="318.1759" r="108.095" xlink:href="#radial-gradient-10"/><linearGradient id="linear-gradient-69" x1="828.6742" y1="267.7848" x2="828.6742" y2="418.6383" xlink:href="#linear-gradient-17"/><mask id="mask" x="790.3547" y="266.7257" width="153.0001" height="153.4188" maskUnits="userSpaceOnUse"><circle class="cls-1" cx="866.8548" cy="343.6445" r="76.5001"/></mask><radialGradient id="radial-gradient-21" cx="844.8387" cy="317.7921" r="108.095" xlink:href="#radial-gradient-9"/><mask id="mask-2" x="713.8547" y="267.1444" width="153.0001" height="153.0001" maskUnits="userSpaceOnUse"><circle class="cls-2" cx="790.3547" cy="343.6445" r="76.5001"/></mask><radialGradient id="radial-gradient-22" cx="768.3387" cy="318.2108" r="108.095" xlink:href="#radial-gradient-9"/><radialGradient id="radial-gradient-23" cx="768.7408" cy="305.4948" r="77.4866" xlink:href="#radial-gradient-10"/><radialGradient id="radial-gradient-24" cx="846.8097" cy="305.0065" r="48.6227" xlink:href="#radial-gradient-10"/><radialGradient id="radial-gradient-25" cx="1221.2629" cy="1058.4423" r="51.6576" xlink:href="#radial-gradient-8"/><linearGradient id="linear-gradient-70" x1="1249.2112" y1="339.959" x2="1270.6863" y2="339.959" gradientTransform="matrix(-0.9007, -0.4343, -0.4343, 0.9007, 2518.2187, 575.4437)" xlink:href="#linear-gradient-8"/><linearGradient id="linear-gradient-71" x1="1253.7084" y1="339.9124" x2="1297.695" y2="339.9124" gradientTransform="matrix(-0.9007, -0.4343, -0.4343, 0.9007, 2518.2187, 575.4437)" xlink:href="#linear-gradient-9"/><linearGradient id="linear-gradient-72" x1="1282.6232" y1="343.2757" x2="1296.4479" y2="343.2757" gradientTransform="matrix(-0.9007, -0.4343, -0.4343, 0.9007, 2518.2187, 575.4437)" xlink:href="#linear-gradient-8"/><linearGradient id="linear-gradient-73" x1="1242.3227" y1="359.8807" x2="1285.1735" y2="359.8807" gradientTransform="matrix(-0.9007, -0.4343, -0.4343, 0.9007, 2518.2187, 575.4437)" xlink:href="#linear-gradient-8"/><linearGradient id="linear-gradient-74" x1="1239.6477" y1="365.2786" x2="1267.4582" y2="365.2786" gradientTransform="matrix(-0.9007, -0.4343, -0.4343, 0.9007, 2518.2187, 575.4437)" xlink:href="#linear-gradient-9"/><linearGradient id="linear-gradient-75" x1="1230.5219" y1="358.089" x2="1260.9508" y2="358.089" gradientTransform="matrix(-0.9007, -0.4343, -0.4343, 0.9007, 2518.2187, 575.4437)" xlink:href="#linear-gradient-8"/><linearGradient id="linear-gradient-76" x1="1234.1505" y1="336.4133" x2="1248.0994" y2="336.4133" gradientTransform="matrix(-0.9007, -0.4343, -0.4343, 0.9007, 2518.2187, 575.4437)" xlink:href="#linear-gradient-9"/><linearGradient id="linear-gradient-77" x1="1245.5488" y1="328.195" x2="1273.4596" y2="328.195" gradientTransform="matrix(-0.9007, -0.4343, -0.4343, 0.9007, 2518.2187, 575.4437)" xlink:href="#linear-gradient-8"/><linearGradient id="linear-gradient-78" x1="1270.9097" y1="337.6222" x2="1293.9592" y2="337.6222" gradientTransform="matrix(-0.9007, -0.4343, -0.4343, 0.9007, 2518.2187, 575.4437)" xlink:href="#linear-gradient-8"/><radialGradient id="radial-gradient-26" cx="1089.5387" cy="1056.4422" r="51.6576" xlink:href="#radial-gradient-8"/><linearGradient id="linear-gradient-79" x1="1143.7814" y1="430.4263" x2="1165.2565" y2="430.4263" gradientTransform="matrix(-0.6172, -0.7868, 0.7868, -0.6172, 1474.0583, 1516.1143)" xlink:href="#linear-gradient-8"/><linearGradient id="linear-gradient-80" x1="1148.2786" y1="430.3797" x2="1192.2652" y2="430.3797" gradientTransform="matrix(-0.6172, -0.7868, 0.7868, -0.6172, 1474.0583, 1516.1143)" xlink:href="#linear-gradient-9"/><linearGradient id="linear-gradient-81" x1="1177.1934" y1="433.7429" x2="1191.0181" y2="433.7429" gradientTransform="matrix(-0.6172, -0.7868, 0.7868, -0.6172, 1474.0583, 1516.1143)" xlink:href="#linear-gradient-8"/><linearGradient id="linear-gradient-82" x1="1136.8929" y1="450.348" x2="1179.7437" y2="450.348" gradientTransform="matrix(-0.6172, -0.7868, 0.7868, -0.6172, 1474.0583, 1516.1143)" xlink:href="#linear-gradient-9"/><linearGradient id="linear-gradient-83" x1="1134.2179" y1="455.7459" x2="1162.0284" y2="455.7459" gradientTransform="matrix(-0.6172, -0.7868, 0.7868, -0.6172, 1474.0583, 1516.1143)" xlink:href="#linear-gradient-8"/><linearGradient id="linear-gradient-84" x1="1125.0921" y1="448.5562" x2="1155.521" y2="448.5562" gradientTransform="matrix(-0.6172, -0.7868, 0.7868, -0.6172, 1474.0583, 1516.1143)" xlink:href="#linear-gradient-9"/><linearGradient id="linear-gradient-85" x1="1128.7207" y1="426.8806" x2="1142.6696" y2="426.8806" gradientTransform="matrix(-0.6172, -0.7868, 0.7868, -0.6172, 1474.0583, 1516.1143)" xlink:href="#linear-gradient-8"/><linearGradient id="linear-gradient-86" x1="1140.119" y1="418.6623" x2="1168.0299" y2="418.6623" gradientTransform="matrix(-0.6172, -0.7868, 0.7868, -0.6172, 1474.0583, 1516.1143)" xlink:href="#linear-gradient-9"/><linearGradient id="linear-gradient-87" x1="1165.4799" y1="428.0895" x2="1188.5295" y2="428.0895" gradientTransform="matrix(-0.6172, -0.7868, 0.7868, -0.6172, 1474.0583, 1516.1143)" xlink:href="#linear-gradient-9"/><linearGradient id="linear-gradient-88" x1="1164.1571" y1="294.1397" x2="1164.6661" y2="417.201" xlink:href="#linear-gradient-17"/><mask id="mask-3" x="1145.4747" y="267.1425" width="153.0001" height="153.0001" maskUnits="userSpaceOnUse"><circle class="cls-3" cx="1221.9748" cy="343.6426" r="76.5001"/></mask><radialGradient id="radial-gradient-27" cx="1199.9587" cy="318.2089" r="108.095" xlink:href="#radial-gradient-9"/><mask id="mask-4" x="1030.2488" y="267.1425" width="153.0001" height="153.0001" maskUnits="userSpaceOnUse"><circle class="cls-4" cx="1106.7489" cy="343.6426" r="76.5001"/></mask><radialGradient id="radial-gradient-28" cx="1084.7328" cy="318.2089" r="108.095" xlink:href="#radial-gradient-9"/><radialGradient id="radial-gradient-29" cx="1085.129" cy="305.4929" r="77.4866" xlink:href="#radial-gradient-10"/><radialGradient id="radial-gradient-30" cx="1199.8606" cy="305.5219" r="48.6227" xlink:href="#radial-gradient-10"/><mask id="mask-5" x="1133.4548" y="293.4211" width="61.8141" height="100.4426" maskUnits="userSpaceOnUse"><ellipse class="cls-5" cx="1164.3619" cy="343.6425" rx="30.9069" ry="50.2212"/></mask><radialGradient id="radial-gradient-31" cx="974.3451" cy="302.5972" r="60.2121" gradientTransform="translate(-434.3353) scale(1.6364 1)" gradientUnits="userSpaceOnUse"><stop offset="0" stop-color="#cacacc" stop-opacity="0"/><stop offset="0.0663" stop-color="#9a95a9" stop-opacity="0.1585"/><stop offset="0.1326" stop-color="#7b7192" stop-opacity="0.2636"/><stop offset="0.1883" stop-color="#70658a" stop-opacity="0.3"/><stop offset="0.1988" stop-color="#6f6589" stop-opacity="0.3174"/><stop offset="0.4049" stop-color="#665c7d" stop-opacity="0.6148"/><stop offset="0.6091" stop-color="#5f5675" stop-opacity="0.8285"/><stop offset="0.8091" stop-color="#5b5270" stop-opacity="0.9569"/><stop offset="1" stop-color="#5a516e"/></radialGradient><mask id="mask-6" x="1150.2537" y="290.4942" width="27.2781" height="100.0485" maskUnits="userSpaceOnUse"><ellipse class="cls-6" cx="1163.8927" cy="340.5183" rx="50.2212" ry="13.2618" transform="translate(721.7044 1469.7076) rotate(-84.9226)"/></mask><radialGradient id="radial-gradient-32" cx="212.6708" cy="273.0387" r="75.4394" gradientTransform="matrix(-0.9997, 0.0178, -0.0042, -0.117, 1383.3531, 368.6679)" gradientUnits="userSpaceOnUse"><stop offset="0" stop-color="#70658a" stop-opacity="0.6"/><stop offset="0.671" stop-color="#5a516e"/></radialGradient><clipPath id="CLIPPINGPATH-R-HSA-2555396" clipPathUnits="objectBoundingBox"><rect id="CLIPPINGRECT-R-HSA-2555396" x="0" y="0" width="0.679325" height="1"/></clipPath><clipPath id="CLIPPINGPATH-R-HSA-68884" clipPathUnits="objectBoundingBox"><rect id="CLIPPINGRECT-R-HSA-68884" x="0" y="0" width="0.666667" height="1"/></clipPath><clipPath id="CLIPPINGPATH-R-HSA-68875" clipPathUnits="objectBoundingBox"><rect id="CLIPPINGRECT-R-HSA-68875" x="0" y="0" width="0.552239" height="1"/></clipPath><clipPath id="CLIPPINGPATH-R-HSA-68877" clipPathUnits="objectBoundingBox"><rect id="CLIPPINGRECT-R-HSA-68877" x="0" y="0" width="0.740566" height="1"/></clipPath></defs><g id="BG" transform="matrix(0.7352941036224365,0,0,0.7352941036224365,191.29411669114052,42.64705801010132)"><rect id="BG-2" data-name="BG" class="cls-7" width="1366" height="768"/><g id="ARROWS"><g id="R-ICO-012348_" data-name="R-ICO-012348 "><polygon class="cls-8" points="274.509 333.469 287.676 343.699 274.509 353.928 274.509 333.469"/><line class="cls-9" x1="275.4491" y1="343.6986" x2="252.7527" y2="343.6986"/></g><g id="R-ICO-012348_2" data-name="R-ICO-012348 "><polygon class="cls-8" points="482.434 333.469 495.601 343.699 482.434 353.928 482.434 333.469"/><line class="cls-10" x1="483.374" y1="343.6986" x2="460.6774" y2="343.6986"/></g><g id="R-ICO-012348_3" data-name="R-ICO-012348 "><polygon class="cls-8" points="690.756 333.469 703.923 343.699 690.756 353.928 690.756 333.469"/><line class="cls-11" x1="691.6966" y1="343.6986" x2="668.6023" y2="343.6986"/></g><g id="R-ICO-012349_" data-name="R-ICO-012349 "><polygon class="cls-8" points="1007.618 333.357 1020.785 343.586 1007.618 353.816 1007.618 333.357"/><path class="cls-12" d="M1008.4829,348.48H990.9368c-2.5917,0-6.1321-.4632-10.3762-4.8931,4.2491-4.4352,7.7825-4.8931,10.376-4.8931h17.5463Z"/><path class="cls-13" d="M980.5606,343.5866c-4.2491-4.4352-7.78-4.8931-10.3732-4.8931H953.7265V348.48h16.4608C972.779,348.48,976.3165,348.0165,980.5606,343.5866Z"/><path class="cls-14" d="M1008.4829,348.9188H990.9368c-2.8593,0-6.3486-.5911-10.549-4.9758-4.0619-4.239-7.4358-4.8107-10.2-4.8107H953.4249v-.8778h16.7625c2.8605,0,6.3511.591,10.5517,4.9753,4.0617,4.2394,7.4342,4.8112,10.1977,4.8112h17.5461Z"/><path class="cls-15" d="M1008.4829,339.1323H990.9366c-2.7646,0-6.1386.5717-10.2,4.8107-4.2,4.3847-7.69,4.9758-10.5491,4.9758H953.4249V338.2546h.6031v9.7864h16.1592c2.7635,0,6.1361-.5718,10.1978-4.8112,4.2005-4.3843,7.6911-4.9753,10.5516-4.9753h17.5463Z"/></g></g><g id="LOGO" class="cls-16"><path class="cls-17" d="M1142.764,146.84a.4215.4215,0,0,1-.0161.1288.4266.4266,0,0,1-.1531.25.4871.4871,0,0,1-.2818.0725,2.89,2.89,0,0,1-.3787-.0321,3.0032,3.0032,0,0,0-1.8282.306,2.4941,2.4941,0,0,0-.9826.9343,2.567,2.567,0,0,0-.3542,1.3368v4.8969a.4852.4852,0,0,1-.1289.3462.4631.4631,0,0,1-.3544.1368.4681.4681,0,0,1-.4833-.483V146.888a.4636.4636,0,0,1,.1369-.3545.4862.4862,0,0,1,.3464-.1288.4458.4458,0,0,1,.4833.4833v.9986a3.4212,3.4212,0,0,1,1.1919-1.16,3.1024,3.1024,0,0,1,1.5785-.4189Q1142.7637,146.3079,1142.764,146.84Z"/><path class="cls-17" d="M1149.65,146.88a3.8353,3.8353,0,0,1,1.4416,1.5382,4.751,4.751,0,0,1,.5154,2.239.4308.4308,0,0,1-.1289.33.4745.4745,0,0,1-.3384.1208h-6.7491a3.5943,3.5943,0,0,0,.4994,1.7,3.1883,3.1883,0,0,0,1.2082,1.1676,3.431,3.431,0,0,0,1.6913.4189,3.894,3.894,0,0,0,1.2644-.2174,2.697,2.697,0,0,0,1.0067-.572.5351.5351,0,0,1,.3384-.1288.4239.4239,0,0,1,.3221.741,4.0883,4.0883,0,0,1-1.3451.7733,4.5822,4.5822,0,0,1-1.5865.306,4.442,4.442,0,0,1-2.2633-.572,4.07,4.07,0,0,1-1.5542-1.5945,4.7035,4.7035,0,0,1-.564-2.3115,5.0349,5.0349,0,0,1,.5237-2.3277,3.8985,3.8985,0,0,1,1.4657-1.5945,4.063,4.063,0,0,1,2.15-.5718A4.0071,4.0071,0,0,1,1149.65,146.88Zm-4.22,1.184a3.5429,3.5429,0,0,0-1.0228,2.2066h6.2658a3.36,3.36,0,0,0-.9665-2.2066,2.956,2.956,0,0,0-2.1584-.8378A2.9224,2.9224,0,0,0,1145.43,148.0639Z"/><path class="cls-17" d="M1159.6929,146.896a4.2653,4.2653,0,0,1,1.6189,1.6188,4.5668,4.5668,0,0,1,.588,2.3034v3.9143a.4856.4856,0,0,1-.1288.3462.4635.4635,0,0,1-.3545.1368.4684.4684,0,0,1-.4833-.483v-1.2566a3.7455,3.7455,0,0,1-1.4576,1.3451,4.3476,4.3476,0,0,1-2.07.4913,4.5628,4.5628,0,0,1-2.3035-.5881,4.2574,4.2574,0,0,1-1.6188-1.6188,4.7739,4.7739,0,0,1,0-4.5906,4.2616,4.2616,0,0,1,1.6188-1.6188,4.7732,4.7732,0,0,1,4.5906,0Zm-.4831,7.0471a3.3512,3.3512,0,0,0,1.2644-1.2887,3.9027,3.9027,0,0,0,0-3.6726,3.4121,3.4121,0,0,0-1.2644-1.2965,3.5383,3.5383,0,0,0-4.8808,1.2965,3.8438,3.8438,0,0,0,0,3.6726,3.4076,3.4076,0,0,0,1.2727,1.2887,3.7181,3.7181,0,0,0,3.6081,0Z"/><path class="cls-17" d="M1165.975,154.7242a4.2088,4.2088,0,0,1-1.57-1.6188,4.6322,4.6322,0,0,1-.572-2.2872,4.9035,4.9035,0,0,1,.5317-2.2954,4.0507,4.0507,0,0,1,1.482-1.6108,3.96,3.96,0,0,1,2.1262-.5878,4.3643,4.3643,0,0,1,1.8845.4026,4.1471,4.1471,0,0,1,1.482,1.1919.5138.5138,0,0,1,.1128.274.3937.3937,0,0,1-.2256.3542.3849.3849,0,0,1-.2577.0968.4443.4443,0,0,1-.37-.1933,3.2823,3.2823,0,0,0-2.6255-1.2243,2.98,2.98,0,0,0-2.7787,1.74,4.2234,4.2234,0,0,0-.3946,1.8524,3.8619,3.8619,0,0,0,.4349,1.8362,3.25,3.25,0,0,0,1.208,1.2887,3.3571,3.3571,0,0,0,1.772.467,3.2134,3.2134,0,0,0,2.2711-.7891.4639.4639,0,0,1,.3384-.1451.3934.3934,0,0,1,.29.1128.46.46,0,0,1,.1612.3544.3673.3673,0,0,1-.1289.29,4.002,4.002,0,0,1-1.3208.7974,4.5833,4.5833,0,0,1-1.6108.282A4.3257,4.3257,0,0,1,1165.975,154.7242Z"/><path class="cls-17" d="M1178.2086,154.37a.4911.4911,0,0,1,.1369.3625.47.47,0,0,1-.1369.3462.49.49,0,0,1-.3625.1368h-.37a3.0824,3.0824,0,0,1-1.5785-.4025,2.8409,2.8409,0,0,1-1.0793-1.1035,3.2286,3.2286,0,0,1-.3866-1.5865v-4.5264h-1.2563a.4351.4351,0,1,1,0-.87h1.2563v-2.6255a.4906.4906,0,0,1,.1369-.3625.4705.4705,0,0,1,.3464-.1369.47.47,0,0,1,.4993.4994v2.6255h2.1263a.4351.4351,0,1,1,0,.87h-2.1263v4.5264a2.0746,2.0746,0,0,0,.58,1.5221,2.0124,2.0124,0,0,0,1.498.5878h.3544A.4911.4911,0,0,1,1178.2086,154.37Z"/><path class="cls-17" d="M1182.0825,154.7242a4.2577,4.2577,0,0,1-1.6189-1.6188,4.7739,4.7739,0,0,1,0-4.5906,4.2618,4.2618,0,0,1,1.6189-1.6188,4.773,4.773,0,0,1,4.5905,0,4.2646,4.2646,0,0,1,1.6189,1.6188,4.7739,4.7739,0,0,1,0,4.5906,4.26,4.26,0,0,1-1.6189,1.6188,4.773,4.773,0,0,1-4.5905,0Zm4.1075-.7811a3.3526,3.3526,0,0,0,1.2644-1.2887,3.9027,3.9027,0,0,0,0-3.6726,3.4136,3.4136,0,0,0-1.2644-1.2965,3.5382,3.5382,0,0,0-4.8808,1.2965,3.8431,3.8431,0,0,0,0,3.6726,3.4074,3.4074,0,0,0,1.2726,1.2887,3.7183,3.7183,0,0,0,3.6082,0Z"/><path class="cls-17" d="M1202.3135,146.7752a3.2329,3.2329,0,0,1,1.1759,1.3448,4.4257,4.4257,0,0,1,.4186,1.9573v4.6552a.4843.4843,0,0,1-.1288.3462.4627.4627,0,0,1-.3542.1368.4681.4681,0,0,1-.4833-.483v-4.6552a3.057,3.057,0,0,0-.6605-2.03,2.1074,2.1074,0,0,0-1.6913-.7891,2.3752,2.3752,0,0,0-1.82.7409,2.6533,2.6533,0,0,0-.6606,1.9651v4.768a.4843.4843,0,0,1-.1288.3462.4625.4625,0,0,1-.3542.1368.4681.4681,0,0,1-.4833-.483v-4.6552a3.057,3.057,0,0,0-.66-2.03,2.1074,2.1074,0,0,0-1.6913-.7891,2.4282,2.4282,0,0,0-2.5288,2.5448v4.9292a.4856.4856,0,0,1-.1288.3462.4635.4635,0,0,1-.3545.1368.4681.4681,0,0,1-.4833-.483V146.888a.464.464,0,0,1,.1369-.3545.4864.4864,0,0,1,.3464-.1288.4457.4457,0,0,1,.4833.4833v.6281a3.1252,3.1252,0,0,1,1.1115-.9021,3.1912,3.1912,0,0,1,1.4173-.3221,3.1154,3.1154,0,0,1,1.6752.4592,3.2967,3.2967,0,0,1,1.1759,1.2644,3.2193,3.2193,0,0,1,1.208-1.2644,3.3424,3.3424,0,0,1,1.74-.4592A3.1341,3.1341,0,0,1,1202.3135,146.7752Z"/><path class="cls-17" d="M1212.4048,146.88a3.8346,3.8346,0,0,1,1.4416,1.5382,4.75,4.75,0,0,1,.5154,2.239.4311.4311,0,0,1-.1288.33.4747.4747,0,0,1-.3384.1208h-6.7491a3.5942,3.5942,0,0,0,.4993,1.7,3.1878,3.1878,0,0,0,1.2083,1.1676,3.4306,3.4306,0,0,0,1.6912.4189,3.8931,3.8931,0,0,0,1.2644-.2174,2.6962,2.6962,0,0,0,1.0067-.572.5351.5351,0,0,1,.3384-.1288.4238.4238,0,0,1,.3221.741,4.0867,4.0867,0,0,1-1.345.7733,4.5823,4.5823,0,0,1-1.5866.306,4.4416,4.4416,0,0,1-2.2632-.572,4.069,4.069,0,0,1-1.5542-1.5945,4.7035,4.7035,0,0,1-.564-2.3115,5.0361,5.0361,0,0,1,.5236-2.3277,3.8985,3.8985,0,0,1,1.4657-1.5945,4.0636,4.0636,0,0,1,2.15-.5718A4.0067,4.0067,0,0,1,1212.4048,146.88Zm-4.22,1.184a3.5433,3.5433,0,0,0-1.0227,2.2066h6.2658a3.3594,3.3594,0,0,0-.9666-2.2066,2.9558,2.9558,0,0,0-2.1583-.8378A2.9226,2.9226,0,0,0,1208.1845,148.0639Z"/><polygon class="cls-18" points="1124.408 141.724 1124.408 137.857 1114.362 143.657 1114.362 155.257 1117.711 153.324 1117.711 145.59 1124.408 141.724"/><polygon class="cls-19" points="1117.711 153.324 1117.711 157.191 1121.059 155.257 1121.059 151.39 1117.711 153.324"/><polygon class="cls-19" points="1127.757 143.657 1127.757 139.79 1124.408 141.724 1124.408 145.59 1127.757 143.657"/><polygon class="cls-20" points="1121.059 147.524 1124.408 145.59 1124.408 141.724 1117.711 145.59 1117.711 153.324 1121.059 151.39 1121.059 147.524"/><polygon class="cls-21" points="1127.757 151.39 1127.757 151.39 1127.757 155.257 1131.105 153.324 1131.105 149.457 1127.757 151.39 1127.757 151.39"/><polygon class="cls-21" points="1131.105 145.59 1131.105 141.724 1127.757 143.657 1127.757 147.524 1131.105 145.59"/><polygon class="cls-21" points="1121.059 155.257 1121.059 159.124 1124.408 157.191 1124.408 153.324 1121.059 155.257"/><polygon class="cls-22" points="1124.408 149.457 1127.757 147.524 1127.757 143.657 1124.408 145.59 1124.408 149.457 1121.059 151.39 1121.059 155.257 1124.408 153.324 1124.408 149.457"/><polygon class="cls-17" points="1121.059 147.524 1121.059 151.39 1124.408 149.457 1124.408 145.59 1121.059 147.524"/><polygon class="cls-17" points="1131.105 145.59 1127.757 147.524 1124.408 149.457 1124.408 153.324 1124.408 157.191 1124.408 161.057 1127.757 159.124 1127.757 155.257 1127.757 151.39 1127.757 151.39 1127.757 151.39 1131.105 149.457 1134.454 147.524 1134.454 143.657 1131.105 145.59"/></g></g><g id="REGION-R-HSA-68875" style="cursor: pointer;" transform="matrix(0.7352941036224365,0,0,0.7352941036224365,191.29411669114052,42.64705801010132)"><rect id="MASK-7" data-name="MASK" class="cls-23" width="265.7344" height="768"/><g id="_Group_" data-name="&lt;Group&gt;"><g id="R-ICO-013121_" data-name="R-ICO-013121 " class="cls-24"><circle class="cls-25" cx="157.8267" cy="333.3575" r="39.8557"/><path class="cls-26" d="M157.8267,374.6785a41.3211,41.3211,0,1,1,41.321-41.321A41.3669,41.3669,0,0,1,157.8267,374.6785Zm0-79.7115a38.39,38.39,0,1,0,38.3905,38.3905A38.4277,38.4277,0,0,0,157.8267,294.967Z"/></g><g id="Genetic_data"><path class="cls-27" d="M158.7194,342.7069c-2.6923,0-5.6245-2.3147-8.7338-6.9a1.2927,1.2927,0,1,1,2.14-1.4512c2.7786,4.0967,5.287,6.1261,7.0626,5.71,2.0946-.4882,3.8534-4.4494,4.7044-10.5965.5038-3.6384-.3257-6.5988-2.465-8.7982-3.1594-3.2483-8.58-4.26-12.5531-3.8223-.9457.1044-1.2088.51-1.3325.8514-.5572,1.537.8186,5.1577,4.0849,8.5558a1.2928,1.2928,0,0,1-1.8644,1.7916c-3.7882-3.9406-5.6573-8.4531-4.6518-11.2283a3.9133,3.9133,0,0,1,3.48-2.54c4.5992-.5076,10.9219.7154,14.69,4.5891,2.6855,2.7613,3.7827,6.55,3.1729,10.9564-1.0488,7.573-3.3581,11.9854-6.6787,12.76A4.691,4.691,0,0,1,158.7194,342.7069Z"/><path class="cls-28" d="M164.75,335.1667a16.289,16.289,0,0,1-4.0024-.5555,23.6269,23.6269,0,0,1-10.9854-6.563,1.2928,1.2928,0,0,1,1.8644-1.7916,21.0064,21.0064,0,0,0,9.7574,5.8479c5.3151,1.35,7.3083-.37,10.3225-2.9755,3.1675-2.7386,7.1093-6.1459,15.9887-7.3437,2.06-.2778,4.9191-.436,5.9738,1.3918.7049,1.2226.3017,2.8257-1.1987,4.7642a1.2927,1.2927,0,1,1-2.0445-1.5825c1.0408-1.3451.9966-1.8808.992-1.9145a3.3011,3.3011,0,0,0-1.5333-.2378,13.9315,13.9315,0,0,0-1.8433.141c-8.1169,1.0951-11.5844,4.0929-14.6436,6.7377C170.9059,333.2391,168.6754,335.1667,164.75,335.1667Z"/><path class="cls-29" d="M180.0164,337.7466a1.293,1.293,0,0,1-.6877-2.3888c5.0243-3.1481,9.1724-6.5125,11.097-8.999a1.2927,1.2927,0,0,1,2.0445,1.5825c-2.1005,2.7146-6.5,6.3062-11.7686,9.6083A1.2927,1.2927,0,0,1,180.0164,337.7466Z"/><path class="cls-30" d="M171.7073,362.1189c-2.8926,0-6.3223-2.675-10.4985-5.9325-4.7975-3.7423-10.2355-7.9847-15.2-8.15a15.7893,15.7893,0,0,0-6.3538.776,1.2933,1.2933,0,0,1-1.0118-2.38,17.7715,17.7715,0,0,1,7.4515-.98c5.8058.1927,11.5961,4.7094,16.7045,8.6942,3.7609,2.9334,7.6531,5.9712,9.4847,5.2886.9966-.3679,1.5332-2.0623,1.8076-3.4183,1.2508-6.1741-2.3173-7.7734-5.1842-9.0587-1.4419-.6464-2.8039-1.2575-2.8312-2.6523-.029-1.48,1.4027-2.6228,6.3845-5.0967,2.3064-1.1447,4.6169-2.441,6.8681-3.8517a1.2931,1.2931,0,0,1,1.3729,2.1918c-2.3228,1.4554-4.7087,2.7929-7.0912,3.9764a29.5546,29.5546,0,0,0-4.6148,2.62c.293.149.6633.3148.9693.452,2.9086,1.3038,8.3222,3.7314,6.661,11.9324-.5976,2.95-1.7243,4.6943-3.4448,5.3307A4.2275,4.2275,0,0,1,171.7073,362.1189Z"/><path class="cls-31" d="M157.7177,361.8984a4.8209,4.8209,0,0,1-3.1081-1.3535,1.2925,1.2925,0,1,1,1.686-1.96c.6523.5606,1.1932.7972,1.6111.7062.6553-.1464,1.441-1.1413,2.1552-2.7314a8.6871,8.6871,0,0,0,.6629-1.8888,32.865,32.865,0,0,0-5.7739,2.5319c-5.9337,2.9915-12.66,6.382-15.7942,2.5732-2.1956-2.6658-4.648-6.5167-3.864-9.7228a5.2944,5.2944,0,0,1,3.3505-3.6212,1.2933,1.2933,0,0,1,1.0118,2.38,2.8105,2.8105,0,0,0-1.8505,1.8552c-.4074,1.6658.8131,4.3863,3.3479,7.4653,1.8228,2.2087,8.329-1.0681,12.6344-3.239,4.5824-2.31,7.3479-3.7036,8.8916-2.228,1.2126,1.159.55,3.1548-.2579,4.9527-1.1137,2.48-2.4061,3.8518-3.9515,4.1961A3.4433,3.4433,0,0,1,157.7177,361.8984Z"/><path class="cls-32" d="M155.4522,360.858a1.2847,1.2847,0,0,1-.8426-.3131c-2.1144-1.819-4.2128-5.38-6.7132-10.1664-.4646-.89-.9314-1.7971-1.399-2.707-1.5083-2.9335-3.0681-5.9671-4.5819-8.4073-1.7348-2.7953-4.26-4.1589-7.1038-3.8467-2.7478.3031-5.39,2.1641-6.1455,4.33a2.9132,2.9132,0,0,0,.7828,3.2331,8.4444,8.4444,0,0,0,.9861.8628,8.4245,8.4245,0,0,0,.1187-1.2037,1.2927,1.2927,0,1,1,2.5833.106c-.064,1.5682-.31,3.2416-1.6465,3.7668-1.3585.5353-2.7145-.5572-3.8627-1.6969a5.5187,5.5187,0,0,1-1.4031-5.92c1.0795-3.0934,4.5714-5.6371,8.3032-6.0487,3.8354-.4175,7.3286,1.4192,9.5844,5.0537,1.569,2.5286,3.1531,5.6093,4.6846,8.5891.4651.904.9293,1.8072,1.3914,2.6918,2.0442,3.9132,4.199,7.7616,6.1072,9.4038a1.2925,1.2925,0,0,1-.8434,2.2727Z"/><path class="cls-33" d="M131.8463,343.9855c-.0177,0-.0358,0-.0535-.0008a1.2928,1.2928,0,0,1-1.239-1.3451c.07-1.7213-.1006-4.356-.3169-7.69-.2976-4.5849-.6679-10.2914-.6679-17.0959,0-5.861,1.4444-9.6673,4.2928-11.3133,2.4111-1.3935,5.68-1.0429,9.2043.9882a1.2931,1.2931,0,1,1-1.2912,2.2407c-1.5576-.8982-4.4894-2.2226-6.6194-.99-1.9629,1.1342-3.0007,4.2722-3.0007,9.0743,0,6.7208.3674,12.3806.6624,16.9284.2214,3.4107.396,6.1051.32,7.9636A1.2926,1.2926,0,0,1,131.8463,343.9855Z"/><path class="cls-34" d="M156.3137,325.6636a3.8149,3.8149,0,0,1-.6654-.0581c-1.6506-.2934-2.9427-1.6679-3.84-4.0854a24.8533,24.8533,0,0,0-10.0339-11.7509,1.2931,1.2931,0,0,1,1.2912-2.2407,27.6761,27.6761,0,0,1,11.1668,13.0923c.3818,1.029,1.0156,2.2874,1.8674,2.4385,1.9192.3392,5.4494-3.7777,8.2763-7.0891.9264-1.0846,1.8838-2.2062,2.8089-3.212a1.2927,1.2927,0,1,1,1.9031,1.75c-.8926.9709-1.8345,2.074-2.7453,3.1409C162.8312,321.763,159.5013,325.6636,156.3137,325.6636Z"/><path class="cls-35" d="M185.3673,343.9855a1.2669,1.2669,0,0,1-.255-.0252,1.2922,1.2922,0,0,1-1.0139-1.521,9.8456,9.8456,0,0,1,2.5378-4.5917c.5114-.5942,1.04-1.2087.9895-1.5126-.05-.3013-.5387-1.2213-3.9877-3.25-6.0041-3.5319-8.6358-6.0945-9.0844-8.8449-.3881-2.3783,1.0429-4.3505,2.1527-5.627a5.7052,5.7052,0,0,0,.59-6.57c-.87-1.2811-2.258-1.6317-4.0092-1.0118-1.3291.4689-3.0327,2.2087-4.199,3.4768a1.2927,1.2927,0,0,1-1.9031-1.75c2.18-2.3708,3.7962-3.6557,5.2415-4.1654,2.8543-1.0075,5.4729-.2609,7.0082,1.9962a8.32,8.32,0,0,1-.7778,9.7212c-1.2373,1.4229-1.7162,2.5066-1.5517,3.5138.2976,1.8248,2.79,4.0592,7.8437,7.0322,3.454,2.0319,4.9687,3.4966,5.2271,5.0563.2483,1.4957-.6814,2.5765-1.58,3.6211a7.3538,7.3538,0,0,0-1.9629,3.4124A1.2932,1.2932,0,0,1,185.3673,343.9855Z"/></g></g><g id="TOP" class="cls-36"><circle id="BG-3" data-name="BG" class="cls-37" cx="166.252" cy="343.6426" r="76.5001"/><circle id="SHADOW" class="cls-38" cx="166.252" cy="343.6426" r="76.5001"/><circle id="LIGHT" class="cls-39" cx="166.252" cy="343.6426" r="76.5001"/></g><g id="OVERLAY-R-HSA-68875"><rect class="cls-40" x="81.252" y="134.4809" width="170" height="30" rx="8"/><text class="cls-41" transform="translate(106.249 152.3695)">MITOTIC PROPHASE</text><g><g id="OVERLAYBASE-R-HSA-68875" fill="#FFFFFF" stroke="#000000" stroke-width="0.5"><rect x="81.252" y="134.4809" width="170" height="30" rx="8"/></g><g id="OVERLAYCLONE-R-HSA-68875" clip-path="url(#CLIPPINGPATH-R-HSA-68875)" fill="rgba(194,194,194,0.9)"><rect x="81.252" y="134.4809" width="170" height="30" rx="8"/></g><text class="cls-41 ST-OVERLAY-TEXT" transform="translate(106.249 152.3695)">MITOTIC PROPHASE</text></g></g><g id="ANALINFO-R-HSA-68875" class="cls-42 ST-ANALYSIS-INFO"><rect class="cls-43" x="81.252" y="114.4809" width="170" height="20" rx="8"/><text id="_Group_2" data-name="&lt;Group&gt;" class="cls-44" alignment-baseline="middle" dominant-baseline="middle" text-anchor="middle" x="166.2519989013672" y="124.48089599609375">Hit: 74/134 - FDR: 8.03E-1</text></g></g><g id="REGION-R-HSA-68877" style="cursor: pointer;" transform="matrix(0.7352941036224365,0,0,0.7352941036224365,191.29411669114052,42.64705801010132)"><rect id="MASK-8" data-name="MASK" class="cls-23" x="265.7344" width="221.6495" height="768"/><g id="Chromosomes"><g id="R-ICO-012564" class="cls-36"><path class="cls-45" d="M423.9832,343.0355a6.4752,6.4752,0,0,0-6.5748-6.4481H394.5726a3.2885,3.2885,0,0,0,.04,6.5767h22.7959a2.9322,2.9322,0,0,1,0,1.6428H394.6125a3.2885,3.2885,0,0,0-.04,6.5767h22.8358a6.4753,6.4753,0,0,0,6.5748-6.4482Z"/><path class="cls-46" d="M423.9832,344.8069a6.5823,6.5823,0,0,0,6.5748,6.5748l13.1263.0019a3.2373,3.2373,0,0,0,3.2259-3.2893,3.2876,3.2876,0,0,0-3.2875-3.2874H430.558a2.9637,2.9637,0,0,1,0-1.6428h13.0647a3.2877,3.2877,0,0,0,3.2875-3.2875,3.2372,3.2372,0,0,0-3.2259-3.2892l-13.1263.0018a6.5824,6.5824,0,0,0-6.5748,6.5749Z"/></g><g id="R-ICO-012564-2" data-name="R-ICO-012564" class="cls-47"><path class="cls-48" d="M384.4918,362.2389a7.6179,7.6179,0,0,1,7.7351-7.586h26.8655a3.8687,3.8687,0,0,1-.0468,7.7372H392.2269a3.45,3.45,0,0,0,0,1.9327h26.8187a3.8688,3.8688,0,0,1,.0468,7.7374H392.2269a7.618,7.618,0,0,1-7.7351-7.5862Z"/><path class="cls-49" d="M384.4918,364.3228a7.744,7.744,0,0,1-7.7351,7.7351l-15.4427.0023a3.8085,3.8085,0,0,1-3.7951-3.87,3.8677,3.8677,0,0,1,3.8676-3.8676h15.37a3.484,3.484,0,0,0,0-1.9327h-15.37a3.8677,3.8677,0,0,1-3.8676-3.8675,3.8083,3.8083,0,0,1,3.7951-3.87l15.4427.0021a7.7441,7.7441,0,0,1,7.7351,7.7351Z"/></g><g id="R-ICO-012564-3" data-name="R-ICO-012564"><path class="cls-50" d="M348.8824,383.3953a8.7534,8.7534,0,0,1,8.8881-8.7168h30.87a4.4454,4.4454,0,0,1-.0538,8.8905H357.7705a3.964,3.964,0,0,0,0,2.2208h30.8163a4.4455,4.4455,0,0,1,.0538,8.8906h-30.87a8.7534,8.7534,0,0,1-8.8881-8.7168Z"/><path class="cls-51" d="M348.8824,385.79a8.8982,8.8982,0,0,1-8.8881,8.8881L322.25,394.68a4.3761,4.3761,0,0,1-4.3608-4.4465,4.4444,4.4444,0,0,1,4.4441-4.4441h17.6613a4.0052,4.0052,0,0,0,0-2.2208H322.333a4.4443,4.4443,0,0,1-4.4441-4.444,4.3761,4.3761,0,0,1,4.3608-4.4465l17.7446.0024a8.8983,8.8983,0,0,1,8.8881,8.8881Z"/></g><g id="R-ICO-012565_" data-name="R-ICO-012565 " class="cls-36"><path class="cls-52" d="M404.2323,303.0533a5.5581,5.5581,0,0,0-5.6436-5.5349H378.9874a2.8227,2.8227,0,0,0,.0342,5.6452h19.5671a2.5186,2.5186,0,0,1,0,1.41H379.0216a2.8227,2.8227,0,0,0-.0342,5.6451h19.6013a5.5581,5.5581,0,0,0,5.6436-5.5348Z"/><path class="cls-53" d="M404.2323,304.5737a5.65,5.65,0,0,0,5.6436,5.6436l11.2671.0015a2.7786,2.7786,0,0,0,2.7689-2.8233,2.822,2.822,0,0,0-2.8218-2.8218H409.8759a2.54,2.54,0,0,1,0-1.41H421.09a2.822,2.822,0,0,0,2.8218-2.8218,2.7787,2.7787,0,0,0-2.7689-2.8234l-11.2671.0016a5.65,5.65,0,0,0-5.6436,5.6436Z"/></g><g id="R-ICO-012565_2" data-name="R-ICO-012565 " class="cls-47"><path class="cls-54" d="M361.7068,320.4989a7.618,7.618,0,0,1,7.7351-7.5861h26.8656a3.8687,3.8687,0,0,1-.0468,7.7372H369.4419a3.45,3.45,0,0,0,0,1.9328h26.8188a3.8687,3.8687,0,0,1,.0468,7.7372H369.4419a7.618,7.618,0,0,1-7.7351-7.586Z"/><path class="cls-55" d="M361.7068,322.5828a7.744,7.744,0,0,1-7.7351,7.7351l-15.4426.0021a3.8084,3.8084,0,0,1-3.7951-3.87,3.8677,3.8677,0,0,1,3.8675-3.8675h15.37a3.4843,3.4843,0,0,0,0-1.9328h-15.37a3.8677,3.8677,0,0,1-3.8675-3.8675,3.8084,3.8084,0,0,1,3.7951-3.87l15.4426.0022a7.7439,7.7439,0,0,1,7.7351,7.735Z"/></g><g id="R-ICO-012565_3" data-name="R-ICO-012565 "><path class="cls-56" d="M345.9948,341.6709a8.7535,8.7535,0,0,0-8.8881-8.7168h-30.87a4.4455,4.4455,0,0,0,.0539,8.8906h30.8163a3.964,3.964,0,0,1,0,2.2208H306.29a4.4454,4.4454,0,0,0-.0539,8.8905h30.87a8.7535,8.7535,0,0,0,8.8881-8.7168Z"/><path class="cls-57" d="M345.9948,344.0655a8.8982,8.8982,0,0,0,8.8881,8.888l17.7445.0025a4.3761,4.3761,0,0,0,4.3608-4.4465,4.4442,4.4442,0,0,0-4.444-4.444H354.8829a4.0028,4.0028,0,0,1,0-2.2208h17.6613a4.4443,4.4443,0,0,0,4.444-4.4441,4.3761,4.3761,0,0,0-4.3608-4.4465l-17.7445.0025a8.8982,8.8982,0,0,0-8.8881,8.8881Z"/></g></g><g id="R-ICO-013391_" data-name="R-ICO-013391 "><path class="cls-58" d="M404.2323,303.1636c0-18.4322-17.5956-24.7612-31.0662-20.2854"/><path class="cls-59" d="M373.1661,404.407a9.4444,9.4444,0,0,0,1.99.148"/><path class="cls-60" d="M380.2762,403.4788c15.8592-5.7263,40.28-33.1267,43.38-55.6991"/><path class="cls-59" d="M423.92,345.1605q.0633-1.0067.0636-1.9964"/><path class="cls-58" d="M373.1661,282.8782c-29.4426,7.9394-26.7066,47.4407-27.1713,61.361"/><path class="cls-58" d="M361.7068,320.65c0-11.7009-.2153-28.6136,11.4593-37.7718"/><path class="cls-61" d="M384.4918,364.3228c1.1118,16.6505-6.9577,33.8784-11.3257,40.0842"/><path class="cls-61" d="M348.8824,385.9636c0,11.0475,14.8356,18.5951,24.2837,18.4434"/></g><circle class="cls-62" cx="373.1661" cy="282.8782" r="5.735"/><circle class="cls-63" cx="373.1661" cy="404.407" r="5.735"/><g id="TOP-2" data-name="TOP" class="cls-36"><circle id="BG-4" data-name="BG" class="cls-64" cx="374.1767" cy="343.6426" r="76.5001"/><circle id="SHADOW-2" data-name="SHADOW" class="cls-65" cx="374.1767" cy="343.6426" r="76.5001"/><circle id="LIGHT-2" data-name="LIGHT" class="cls-66" cx="374.1767" cy="343.6426" r="76.5001"/></g><g id="OVERLAY-R-HSA-68877"><rect class="cls-40" x="287.7293" y="523.4815" width="172.895" height="30" rx="8"/><text class="cls-41" transform="translate(297.1758 541.3701)">MITOTIC PROMETAPHASE</text><g><g id="OVERLAYBASE-R-HSA-68877" fill="#FFFFFF" stroke="#000000" stroke-width="0.5"><rect x="287.7293" y="523.4815" width="172.895" height="30" rx="8"/></g><g id="OVERLAYCLONE-R-HSA-68877" clip-path="url(#CLIPPINGPATH-R-HSA-68877)" fill="rgba(245,220,53,0.9)"><rect x="287.7293" y="523.4815" width="172.895" height="30" rx="8"/></g><text class="cls-41 ST-OVERLAY-TEXT" transform="translate(297.1758 541.3701)">MITOTIC PROMETAPHASE</text></g></g><g id="ANALINFO-R-HSA-68877" data-name="ANALINFO" class="cls-42 ST-ANALYSIS-INFO"><rect class="cls-43" x="287.7293" y="553.4815" width="172.895" height="20" rx="8"/><text id="_Group_3" data-name="&lt;Group&gt;" class="cls-44" alignment-baseline="middle" dominant-baseline="middle" text-anchor="middle" x="374.17681884765625" y="563.4815063476562">Hit: 157/212 - FDR: 5.85E-1</text></g></g><g id="REGION-R-HSA-2555396" style="cursor: pointer;" transform="matrix(0.7352941036224365,0,0,0.7352941036224365,191.29411669114052,42.64705801010132)"><rect id="MASK-9" data-name="MASK" class="cls-23" x="487.3838" width="474.5597" height="768"/><g id="Chromosomes-2" data-name="Chromosomes"><g id="R-ICO-012565_4" data-name="R-ICO-012565 " class="cls-36"><path class="cls-67" d="M561.42,339.5566a4.8576,4.8576,0,0,0-6.9081.0673l-12.1135,12.1134a2.4669,2.4669,0,0,0,3.51,3.4675L558,343.1125a2.2,2.2,0,0,1,.8714.8714l-12.0923,12.0923a2.4669,2.4669,0,0,0,3.4675,3.51L562.36,347.4726a4.8576,4.8576,0,0,0,.0672-6.9082Z"/><path class="cls-68" d="M562.3591,340.4963a4.9382,4.9382,0,0,0,6.9754,0l6.9639-6.962a2.4285,2.4285,0,0,0-.0336-3.456,2.4664,2.4664,0,0,0-3.4877,0l-6.93,6.93a2.2221,2.2221,0,0,1-.8714-.8715l6.93-6.93a2.4662,2.4662,0,0,0,0-3.4877,2.4283,2.4283,0,0,0-3.4559-.0337l-6.962,6.964a4.9379,4.9379,0,0,0,0,6.9753Z"/></g><g id="R-ICO-012565_5" data-name="R-ICO-012565 " class="cls-47"><path class="cls-69" d="M546.0974,367.1009a6.6579,6.6579,0,0,1,.0922-9.4683L562.7922,341.03a3.3812,3.3812,0,0,1,4.7526,4.8105l-16.5737,16.5737a3.0168,3.0168,0,0,0,1.1944,1.1944l16.5737-16.5737a3.3812,3.3812,0,0,1,4.8105,4.7525L556.947,368.39a6.6578,6.6578,0,0,1-9.4683.0921Z"/><path class="cls-70" d="M547.3853,368.3888a6.7681,6.7681,0,0,1,0,9.56l-9.5422,9.5448a3.3284,3.3284,0,0,1-4.7367-.0461,3.38,3.38,0,0,1,0-4.78l9.4987-9.4986a3.046,3.046,0,0,0-1.1944-1.1944l-9.4987,9.4987a3.38,3.38,0,0,1-4.78,0,3.3285,3.3285,0,0,1-.0461-4.7368l9.5447-9.5421a6.768,6.768,0,0,1,9.5605,0Z"/></g><g id="R-ICO-012565_6" data-name="R-ICO-012565 "><path class="cls-71" d="M564.1212,365.6631a7.65,7.65,0,0,0-10.88.1059l-19.0774,19.0774a3.8852,3.8852,0,0,0,5.5275,5.461l19.0442-19.0442a3.4645,3.4645,0,0,1,1.3724,1.3725L541.064,391.68a3.8852,3.8852,0,0,0,5.461,5.5276L565.6025,378.13a7.65,7.65,0,0,0,.1058-10.88Z"/><path class="cls-72" d="M565.601,367.1429a7.7767,7.7767,0,0,0,10.9855,0l10.9675-10.9645a3.8246,3.8246,0,0,0-.053-5.4428,3.8843,3.8843,0,0,0-5.4928,0L571.0937,361.65a3.4994,3.4994,0,0,1-1.3724-1.3724l10.9145-10.9145a3.8842,3.8842,0,0,0,0-5.4928,3.8246,3.8246,0,0,0-5.4428-.0529L564.2285,354.785a7.7769,7.7769,0,0,0,0,10.9855Z"/></g><g id="R-ICO-012564_" data-name="R-ICO-012564 " class="cls-36"><path class="cls-73" d="M601.5182,312.4243a5.6592,5.6592,0,0,0-8.0481.0783l-14.1122,14.1123a2.874,2.874,0,0,0,4.0889,4.04l14.0876-14.0876a2.5637,2.5637,0,0,1,1.0153,1.0152L584.462,331.67a2.8741,2.8741,0,0,0,4.04,4.089l14.1122-14.1123a5.6592,5.6592,0,0,0,.0783-8.0481Z"/><path class="cls-74" d="M602.6128,313.5189a5.7527,5.7527,0,0,0,8.1264,0l8.1131-8.1107a2.8292,2.8292,0,0,0-.0392-4.0263,2.8733,2.8733,0,0,0-4.0632,0l-8.0739,8.0739a2.5876,2.5876,0,0,1-1.0152-1.0153l8.0738-8.0738a2.8732,2.8732,0,0,0,0-4.0632,2.8292,2.8292,0,0,0-4.0262-.0392l-8.1108,8.113a5.7528,5.7528,0,0,0,0,8.1264Z"/></g><g id="R-ICO-012564_2" data-name="R-ICO-012564 " class="cls-47"><path class="cls-75" d="M607.9164,320.8269a6.6578,6.6578,0,0,1,.0921-9.4683l16.6027-16.6027a3.3812,3.3812,0,0,1,4.7526,4.81L612.79,316.14a3.0151,3.0151,0,0,0,1.1944,1.1944l16.5738-16.5737a3.3812,3.3812,0,0,1,4.81,4.7527L618.766,322.1161a6.6579,6.6579,0,0,1-9.4683.0921Z"/><path class="cls-76" d="M609.2042,322.1147a6.768,6.768,0,0,1,0,9.56l-9.542,9.5448a3.3285,3.3285,0,0,1-4.7368-.0462,3.38,3.38,0,0,1,0-4.78l9.4986-9.4986a3.0442,3.0442,0,0,0-1.1944-1.1944l-9.4986,9.4986a3.38,3.38,0,0,1-4.78,0,3.3282,3.3282,0,0,1-.0461-4.7367l9.5447-9.5422a6.7681,6.7681,0,0,1,9.56,0Z"/></g><g id="R-ICO-012564_3" data-name="R-ICO-012564 "><path class="cls-77" d="M608.6913,338.1833a7.65,7.65,0,0,0-10.88.1058l-19.0774,19.0775a3.8852,3.8852,0,0,0,5.5275,5.461l19.0442-19.0442a3.4651,3.4651,0,0,1,1.3724,1.3724L585.6341,364.2a3.8852,3.8852,0,0,0,5.461,5.5276L610.1726,350.65a7.65,7.65,0,0,0,.1058-10.88Z"/><path class="cls-78" d="M610.1711,339.6631a7.7769,7.7769,0,0,0,10.9855,0l10.9675-10.9645a3.8246,3.8246,0,0,0-.053-5.4428,3.8842,3.8842,0,0,0-5.4928,0L615.6638,334.17a3.4994,3.4994,0,0,1-1.3724-1.3724l10.9145-10.9145a3.8842,3.8842,0,0,0,0-5.4928,3.8246,3.8246,0,0,0-5.4428-.0529l-10.9645,10.9674a7.777,7.777,0,0,0,0,10.9856Z"/></g><g id="RIGHT"><g id="R-ICO-012565_7" data-name="R-ICO-012565 "><path class="cls-79" d="M773.2061,393.4313a3.3312,3.3312,0,0,1-.5138.6851l16.6364,16.6364a3.3939,3.3939,0,0,1-4.77,4.8286L767.8927,398.916a6.683,6.683,0,0,1-.0924-9.5041l.6932-.6933Z"/><path class="cls-80" d="M768.4453,388.7186l-.5994-.5995a6.7934,6.7934,0,0,1,0-9.5965l9.5782-9.5809a3.3411,3.3411,0,0,1,4.7547.0463,3.3931,3.3931,0,0,1,0,4.7983l-9.5346,9.5346a3.3627,3.3627,0,0,1,.5146.6842Z"/></g><g id="R-ICO-012565_8" data-name="R-ICO-012565 "><path class="cls-81" d="M773.2018,373.8962a3.3253,3.3253,0,0,1-.5137.6851l16.6364,16.6364a3.394,3.394,0,0,1-4.7706,4.8287l-16.6654-16.6655a6.683,6.683,0,0,1-.0925-9.5041l.6932-.6932Z"/><path class="cls-82" d="M768.4892,369.1836l-.5994-.6a6.7935,6.7935,0,0,1,0-9.5966l9.5782-9.5808a3.3411,3.3411,0,0,1,4.7547.0462,3.3931,3.3931,0,0,1,0,4.7983l-9.5346,9.5346a3.3654,3.3654,0,0,1,.5146.6842Z"/></g><g id="R-ICO-012565_9" data-name="R-ICO-012565 "><path class="cls-83" d="M773.2018,354.3612a3.328,3.328,0,0,1-.5137.6851l16.6364,16.6364a3.394,3.394,0,0,1-4.7706,4.8287l-16.6654-16.6655a6.683,6.683,0,0,1-.0925-9.5041l.6932-.6933Z"/><path class="cls-84" d="M768.4892,349.6485l-.5994-.5994a6.7935,6.7935,0,0,1,0-9.5966l9.5782-9.5809a3.3411,3.3411,0,0,1,4.7547.0463,3.3931,3.3931,0,0,1,0,4.7983l-9.5346,9.5346a3.3627,3.3627,0,0,1,.5146.6842Z"/></g><g id="R-ICO-012564_4" data-name="R-ICO-012564 "><path class="cls-85" d="M773.66,295.756a3.3258,3.3258,0,0,1-.5138.6851l16.6364,16.6364a3.394,3.394,0,0,1-4.7706,4.8288l-16.6654-16.6655a6.683,6.683,0,0,1-.0924-9.5042l.6932-.6932Z"/><path class="cls-86" d="M768.8621,291.0434l-.5994-.5994a6.7937,6.7937,0,0,1,0-9.5966l9.5781-9.5809a3.3412,3.3412,0,0,1,4.7548.0463,3.3931,3.3931,0,0,1,0,4.7983l-9.5346,9.5346a3.3627,3.3627,0,0,1,.5146.6842Z"/></g><g id="R-ICO-012564_5" data-name="R-ICO-012564 "><path class="cls-87" d="M773.6415,315.2911a3.3307,3.3307,0,0,1-.5137.6851l16.6364,16.6364a3.394,3.394,0,0,1-4.7707,4.8287l-16.6654-16.6654a6.683,6.683,0,0,1-.0924-9.5042l.6932-.6932Z"/><path class="cls-88" d="M768.9289,310.5785l-.5994-.6a6.7935,6.7935,0,0,1,0-9.5966l9.5781-9.5809a3.341,3.341,0,0,1,4.7547.0464,3.3929,3.3929,0,0,1,0,4.7983l-9.5345,9.5345a3.3682,3.3682,0,0,1,.5146.6842Z"/></g><g id="R-ICO-012564_6" data-name="R-ICO-012564 "><path class="cls-89" d="M773.6415,334.8261a3.3253,3.3253,0,0,1-.5137.6851l16.6364,16.6364a3.3941,3.3941,0,0,1-4.7707,4.8288l-16.6654-16.6655a6.683,6.683,0,0,1-.0924-9.5042l.6932-.6932Z"/><path class="cls-90" d="M768.9289,330.1135l-.5994-.5994a6.7935,6.7935,0,0,1,0-9.5966l9.5781-9.5809a3.341,3.341,0,0,1,4.7547.0463,3.3929,3.3929,0,0,1,0,4.7983l-9.5345,9.5346a3.3627,3.3627,0,0,1,.5146.6842Z"/></g><g id="R-ICO-013391_2" data-name="R-ICO-013391 "><path class="cls-58" d="M768.4453,388.7186s-38.7236,1.213-38.7236-45.2907,29.4352-52.3845,39.14-52.3845"/><path class="cls-58" d="M768.4892,369.1836c-5.69,0-38.7675-2.377-38.7675-25.7557s17.4619-32.8494,39.2072-32.8494"/><path class="cls-58" d="M768.4892,349.6485c-7.565,0-38.7675.0331-38.7675-6.2206s5.5869-13.3144,39.2072-13.3144"/></g><circle class="cls-91" cx="729.7217" cy="343.4279" r="5.735"/></g><g id="LEFT"><g id="R-ICO-012565_10" data-name="R-ICO-012565 "><path class="cls-92" d="M884.2042,393.4313a3.3312,3.3312,0,0,0,.5138.6851l-16.6364,16.6364a3.3939,3.3939,0,0,0,4.77,4.8286l16.6655-16.6654a6.6831,6.6831,0,0,0,.0925-9.5041l-.6933-.6933Z"/><path class="cls-93" d="M888.965,388.7186l.5994-.5995a6.7934,6.7934,0,0,0,0-9.5965l-9.5782-9.5809a3.3409,3.3409,0,0,0-4.7546.0463,3.3929,3.3929,0,0,0,0,4.7983l9.5345,9.5346a3.3627,3.3627,0,0,0-.5146.6842Z"/></g><g id="R-ICO-012565_11" data-name="R-ICO-012565 "><path class="cls-94" d="M884.2085,373.8962a3.3253,3.3253,0,0,0,.5137.6851l-16.6364,16.6364a3.394,3.394,0,0,0,4.7706,4.8287l16.6655-16.6655a6.683,6.683,0,0,0,.0924-9.5041l-.6932-.6932Z"/><path class="cls-95" d="M888.9211,369.1836l.5994-.6a6.7935,6.7935,0,0,0,0-9.5966l-9.5782-9.5808a3.3409,3.3409,0,0,0-4.7546.0462,3.3929,3.3929,0,0,0,0,4.7983l9.5345,9.5346a3.3654,3.3654,0,0,0-.5146.6842Z"/></g><g id="R-ICO-012565_12" data-name="R-ICO-012565 "><path class="cls-96" d="M884.2085,354.3612a3.328,3.328,0,0,0,.5137.6851l-16.6364,16.6364a3.394,3.394,0,0,0,4.7706,4.8287l16.6655-16.6655a6.683,6.683,0,0,0,.0924-9.5041l-.6932-.6933Z"/><path class="cls-97" d="M888.9211,349.6485l.5994-.5994a6.7935,6.7935,0,0,0,0-9.5966l-9.5782-9.5809a3.3409,3.3409,0,0,0-4.7546.0463,3.3929,3.3929,0,0,0,0,4.7983l9.5345,9.5346a3.3627,3.3627,0,0,0-.5146.6842Z"/></g><g id="R-ICO-012564_7" data-name="R-ICO-012564 "><path class="cls-98" d="M883.75,295.756a3.3258,3.3258,0,0,0,.5138.6851l-16.6364,16.6364a3.394,3.394,0,0,0,4.7706,4.8288l16.6655-16.6655a6.6832,6.6832,0,0,0,.0924-9.5042l-.6933-.6932Z"/><path class="cls-99" d="M888.5482,291.0434l.5994-.5994a6.7935,6.7935,0,0,0,0-9.5966l-9.5781-9.5809a3.3411,3.3411,0,0,0-4.7547.0463,3.3929,3.3929,0,0,0,0,4.7983l9.5345,9.5346a3.3627,3.3627,0,0,0-.5146.6842Z"/></g><g id="R-ICO-012564_8" data-name="R-ICO-012564 "><path class="cls-100" d="M883.7688,315.2911a3.3312,3.3312,0,0,0,.5138.6851l-16.6364,16.6364a3.394,3.394,0,0,0,4.7706,4.8287l16.6654-16.6654a6.683,6.683,0,0,0,.0924-9.5042l-.6932-.6932Z"/><path class="cls-101" d="M888.4814,310.5785l.5994-.6a6.7935,6.7935,0,0,0,0-9.5966l-9.5781-9.5809a3.341,3.341,0,0,0-4.7547.0464,3.3931,3.3931,0,0,0,0,4.7983l9.5346,9.5345a3.3687,3.3687,0,0,0-.5147.6842Z"/></g><g id="R-ICO-012564_9" data-name="R-ICO-012564 "><path class="cls-102" d="M883.7688,334.8261a3.3258,3.3258,0,0,0,.5138.6851l-16.6364,16.6364a3.394,3.394,0,0,0,4.7706,4.8288l16.6654-16.6655a6.683,6.683,0,0,0,.0924-9.5042l-.6932-.6932Z"/><path class="cls-103" d="M888.4814,330.1135l.5994-.5994a6.7935,6.7935,0,0,0,0-9.5966l-9.5781-9.5809a3.341,3.341,0,0,0-4.7547.0463,3.3931,3.3931,0,0,0,0,4.7983l9.5346,9.5346a3.3632,3.3632,0,0,0-.5147.6842Z"/></g><g id="R-ICO-013391_3" data-name="R-ICO-013391 "><path class="cls-61" d="M888.965,388.7186s38.7236,1.213,38.7236-45.2907-29.4352-52.3845-39.14-52.3845"/><path class="cls-61" d="M888.9211,369.1836c5.69,0,38.7675-2.377,38.7675-25.7557s-17.4618-32.8494-39.2072-32.8494"/><path class="cls-61" d="M888.9211,349.6485c7.565,0,38.7675.0331,38.7675-6.2206s-5.5868-13.3144-39.2072-13.3144"/></g><circle class="cls-104" cx="927.6886" cy="343.4279" r="5.735"/></g></g><g id="_Group_4" data-name="&lt;Group&gt;"><g id="Spindle_fibers"><path class="cls-105" d="M543.6414,302.8208a10.1617,10.1617,0,0,0-1.3418,1.4737"/><path class="cls-106" d="M539.89,308.4144c-5.7855,12.327-9.2811,38.9151,3.3119,55.3773"/><path class="cls-105" d="M544.726,365.6431q.66.7461,1.3714,1.4578"/><path class="cls-105" d="M543.6414,302.8208a5.8938,5.8938,0,0,0-1.2309,1.5639"/><path class="cls-107" d="M541.0618,308.9905c-1.5547,12.3214,6.317,37.4836,20.1612,53.5382"/><path class="cls-105" d="M562.8405,364.3329q.685.7344,1.388,1.4376"/><path class="cls-59" d="M629.5753,388.7547a12.7934,12.7934,0,0,0,.9678-1.7486"/><path class="cls-108" d="M631.87,382.1944c1.9858-14.9972-10.771-40.0234-20.3468-56.2226"/><path class="cls-59" d="M610.2411,323.8238q-.5275-.876-1.0369-1.7091"/><path class="cls-59" d="M629.5753,388.7547q.5826-.83,1.0936-1.6787"/><path class="cls-109" d="M632.7767,382.7951c9.3535-23.9865-16.58-55.7251-26.9773-66.2743"/><path class="cls-59" d="M604.1,314.8511c-.5975-.5653-1.0995-1.0129-1.4874-1.3322"/><path class="cls-58" d="M561.42,339.5566c-6.548-8.0709-17.9813-27.5235-17.7781-36.7358"/><path class="cls-61" d="M608.7986,338.2907c6.4383,6.478,21.912,39.4033,20.7767,50.4639"/><path class="cls-61" d="M564.2285,365.7705c22.3679,20.2323,54.4658,24.9042,65.3468,22.9841"/><path class="cls-61" d="M547.3853,368.3888c22.555,20.3658,72.2891,29.9388,82.19,20.3658"/><path class="cls-61" d="M562.3591,340.4963c11.2374,13.4314,53.2924,46.43,67.2162,48.2583"/><path class="cls-58" d="M601.5182,312.4243c-20.6092-21.28-51.0325-16.9821-57.8768-9.6035"/><path class="cls-58" d="M609.2042,322.1147c-12.3023-13.5589-55.3107-28.3337-65.5628-19.2939"/><path class="cls-58" d="M608.7986,338.2907c-7.7832-9.2491-53.077-44.51-65.1572-35.47"/></g><circle class="cls-110" cx="543.6414" cy="302.8208" r="5.735"/><circle class="cls-111" cx="629.5753" cy="388.7546" r="5.735"/></g><path id="Metaphase_plate" class="cls-112" d="M530.5229,398.658a3.8767,3.8767,0,0,1-2.8579-.9893c-6.205-6.2051,17.7681-37.5947,44.53-64.3559s58.1475-50.7364,64.356-44.53h0c6.2046,6.2051-17.7686,37.5942-44.53,64.3555C568.1538,377.0056,540.604,398.658,530.5229,398.658ZM633.71,288.7864c-7.9649,0-32.0718,16.498-60.8076,45.2334-32.1436,32.1431-48.9756,58.4956-44.53,62.9419,4.4443,4.45,30.7978-12.3857,62.9419-44.53,32.143-32.143,48.9751-58.4956,44.53-62.9414A2.9107,2.9107,0,0,0,633.71,288.7864Z"/><g id="TOP-3" data-name="TOP" class="cls-36"><circle id="BG-5" data-name="BG" class="cls-113" cx="582.1016" cy="343.6096" r="76.5001"/><circle id="SHADOW-3" data-name="SHADOW" class="cls-114" cx="582.1016" cy="343.6096" r="76.5001"/><circle id="LIGHT-3" data-name="LIGHT" class="cls-115" cx="582.1016" cy="343.6096" r="76.5001"/></g><g id="TOP-4" data-name="TOP" class="cls-36"><path id="BG-6" data-name="BG" class="cls-116" d="M866.9242,267.1444a76.1161,76.1161,0,0,0-38.25,10.26,76.5,76.5,0,1,0,0,132.48,76.4961,76.4961,0,1,0,38.25-142.74Z"/><g id="INNER_SHADOWS"><g class="cls-117"><circle class="cls-118" cx="866.8548" cy="343.2258" r="76.5001"/></g><g class="cls-119"><circle class="cls-120" cx="790.3547" cy="343.6445" r="76.5001"/></g></g><g id="LIGHTS"><circle class="cls-121" cx="790.3606" cy="343.6445" r="76.5"/><circle class="cls-122" cx="866.8548" cy="343.6445" r="76.5"/></g></g><g id="OVERLAY-R-HSA-2555396"><rect class="cls-40" x="601.5089" y="134.4571" width="246.008" height="30" rx="8"/><text class="cls-41" transform="translate(610.5099 152.3457)">MITOTIC METAPHASE AND ANAPHASE</text><g><g id="OVERLAYBASE-R-HSA-2555396" fill="#FFFFFF" stroke="#000000" stroke-width="0.5"><rect x="601.5089" y="134.4571" width="246.008" height="30" rx="8"/></g><g id="OVERLAYCLONE-R-HSA-2555396" clip-path="url(#CLIPPINGPATH-R-HSA-2555396)" fill="rgba(202,185,33,0.9)"><rect x="601.5089" y="134.4571" width="246.008" height="30" rx="8"/></g><text class="cls-41 ST-OVERLAY-TEXT" transform="translate(610.5099 152.3457)">MITOTIC METAPHASE AND ANAPHASE</text></g></g><g id="ANALINFO-R-HSA-2555396" data-name="ANALINFO" class="cls-42 ST-ANALYSIS-INFO"><rect class="cls-43" x="601.5089" y="114.4571" width="246.008" height="20" rx="8"/><text id="_Group_5" data-name="&lt;Group&gt;" class="cls-44" alignment-baseline="middle" dominant-baseline="middle" text-anchor="middle" x="724.512939453125" y="124.45709228515625">Hit: 161/237 - FDR: 8.03E-1</text></g></g><g id="REGION-R-HSA-68884" style="cursor: pointer;" transform="matrix(0.7352941036224365,0,0,0.7352941036224365,191.29411669114052,42.64705801010132)"><rect id="MASK-10" data-name="MASK" class="cls-23" x="961.9435" y="174.1429" width="404.0565" height="593.8571"/><g id="_Group_6" data-name="&lt;Group&gt;"><g id="R-ICO-013121_2" data-name="R-ICO-013121 " class="cls-24"><circle class="cls-123" cx="1231.4828" cy="336.918" r="39.304"/><path class="cls-26" d="M1231.4828,377.667a40.749,40.749,0,1,1,40.749-40.749A40.7942,40.7942,0,0,1,1231.4828,377.667Zm0-78.608a37.859,37.859,0,1,0,37.859,37.859A37.8958,37.8958,0,0,0,1231.4828,299.059Z"/></g><g id="Genetic_data-2" data-name="Genetic_data"><path class="cls-124" d="M1226.8969,345.8031c2.3915,1.1532,5.9876.353,10.7134-2.3879a1.2748,1.2748,0,0,0-1.279-2.2055c-4.2229,2.4489-7.32,3.1772-8.7194,2.0472-1.6516-1.3308-1.5172-5.6028.36-11.4277,1.1109-3.4477,3.1158-5.722,5.9581-6.7594,4.1978-1.532,9.4461-.1085,12.7879,1.9817.7953.4977.8554.97.8189,1.327-.1634,1.6039-2.9363,4.2308-7.2932,5.85a1.2749,1.2749,0,1,0,.8887,2.39c5.0528-1.8777,8.6459-5.0855,8.9415-7.9813a3.8591,3.8591,0,0,0-2.0032-3.7471c-3.868-2.4209-10.0081-4.0427-15.0147-2.2159-3.5683,1.3024-6.1657,4.1978-7.5114,8.3732-2.3122,7.1762-2.1508,12.0847.4671,14.195A4.63,4.63,0,0,0,1226.8969,345.8031Z"/><path class="cls-125" d="M1224.77,336.5222a16.0642,16.0642,0,0,0,3.7932,1.2209,23.3,23.3,0,0,0,12.5693-1.1244,1.2749,1.2749,0,0,0-.8887-2.39,20.7162,20.7162,0,0,1-11.1721,1.0152c-5.3-1.0773-6.3332-3.4594-7.8948-7.0646-1.6406-3.7893-3.6825-8.5044-11.0569-13.3716-1.711-1.1292-4.1827-2.4943-5.9025-1.3225-1.15.7841-1.4784,2.3808-.9759,4.7453a1.2748,1.2748,0,1,0,2.4939-.53c-.3483-1.6406-.08-2.0976-.0611-2.1255a3.255,3.255,0,0,1,1.4638.4455,13.7266,13.7266,0,0,1,1.577.9148c6.741,4.45,8.537,8.5976,10.1217,12.2572C1220.1272,332.1732,1221.283,334.8408,1224.77,336.5222Z"/><path class="cls-126" d="M1210.1039,332.2748a1.2752,1.2752,0,0,0,1.6341-1.8274c-3.1146-4.9485-5.3581-9.7137-6.0027-12.7468a1.2748,1.2748,0,0,0-2.4939.53c.7031,3.3111,3.0725,8.3858,6.3383,13.5758A1.2752,1.2752,0,0,0,1210.1039,332.2748Z"/><path class="cls-127" d="M1207.0453,357.4832c2.57,1.239,6.7617.3318,11.8667-.7729,5.8644-1.2693,12.512-2.7084,16.9925-.7285a15.5682,15.5682,0,0,1,5.3115,3.4109,1.2754,1.2754,0,0,0,1.9184-1.6811,17.5254,17.5254,0,0,0-6.1993-4.062c-5.24-2.3156-12.3178-.7836-18.5623.5678-4.5972.9948-9.3557,2.0261-10.69.6352-.7277-.7536-.4785-2.4886-.1415-3.8106,1.5335-6.02,5.388-5.9124,8.4852-5.8261,1.5577.0434,3.0292.0839,3.6509-1.1433.66-1.302-.1226-2.9307-3.4882-7.262-1.5583-2.0047-3.0555-4.1458-4.4509-6.3632a1.2752,1.2752,0,0,0-2.1583,1.3589c1.44,2.2877,2.9863,4.4977,4.5957,6.57a29.1362,29.1362,0,0,1,2.9768,4.3042c-.324.0069-.724-.0045-1.0545-.0137-3.1422-.0876-8.9907-.25-11.0279,7.7462-.7328,2.8766-.4791,4.9084.7766,6.2106A4.17,4.17,0,0,0,1207.0453,357.4832Z"/><path class="cls-128" d="M1219.5664,363.28a4.7541,4.7541,0,0,0,3.3406.129,1.2746,1.2746,0,1,0-.6583-2.4628,2.041,2.041,0,0,1-1.7336-.0628c-.5193-.4108-.7911-1.6311-.7445-3.3494a8.56,8.56,0,0,1,.22-1.9617,32.3988,32.3988,0,0,1,4.0442,4.7221c3.9895,5.199,8.5117,11.0915,12.9275,9.0509,3.0922-1.4275,6.92-3.7977,7.5969-6.9815a5.2208,5.2208,0,0,0-1.4251-4.6517,1.2754,1.2754,0,0,0-1.9184,1.6811,2.7715,2.7715,0,0,1,.8492,2.44c-.3516,1.6542-2.601,3.548-6.1716,5.1973-2.5651,1.1812-6.9408-4.5164-9.8354-8.2888-3.0812-4.0145-4.9406-6.4372-6.9439-5.7877-1.5735.51-1.84,2.5667-1.8923,4.51-.0729,2.68.4875,4.452,1.7128,5.42A3.3878,3.3878,0,0,0,1219.5664,363.28Z"/><path class="cls-129" d="M1222.0244,363.3257a1.267,1.267,0,0,0,.8826.0828c2.6573-.71,6.0464-2.974,10.3178-6.1552.7938-.5912,1.5971-1.1973,2.4021-1.8053,2.5964-1.96,5.2812-3.9862,7.6712-5.5053,2.7383-1.74,5.5658-1.87,7.9578-.3742,2.311,1.4461,3.8605,4.2308,3.6042,6.4784a2.8728,2.8728,0,0,1-2.08,2.5366,8.3326,8.3326,0,0,1-1.2455.344,8.3047,8.3047,0,0,1,.41-1.12,1.2748,1.2748,0,1,0-2.34-1.0123c-.6148,1.42-1.1133,3.012-.1509,4.0511.9775,1.0574,2.65.6678,4.158.1472a5.4421,5.4421,0,0,0,3.7821-4.6575c.366-3.21-1.6462-6.9654-4.7848-8.93-3.228-2.0136-7.1176-1.8784-10.6782.3839-2.4768,1.574-5.2035,3.632-7.84,5.6228-.8.6039-1.6,1.2073-2.389,1.7952-3.4919,2.6-7.0544,5.0959-9.4528,5.7373a1.2746,1.2746,0,0,0-.2243,2.38Z"/><path class="cls-130" d="M1250.22,358.4494c.0157.0076.0318.0153.0479.0222a1.275,1.275,0,0,0,1.6767-.6641c.6749-1.5592,1.9552-3.8263,3.5754-6.6952,2.2282-3.9452,5.0014-8.8556,7.916-14.9,2.5105-5.2061,2.8578-9.2059,1.0327-11.8881-1.5449-2.27-4.5984-3.3591-8.5993-3.0647a1.2751,1.2751,0,1,0,.1872,2.5434c1.7683-.1306,4.94-.0513,6.3038,1.956,1.2578,1.8483.8356,5.08-1.2213,9.3458-2.8787,5.97-5.6293,10.84-7.8394,14.7535-1.6575,2.9348-2.9668,5.2533-3.6952,6.9369A1.2747,1.2747,0,0,0,1250.22,358.4494Z"/><path class="cls-131" d="M1236.334,331.6943a3.77,3.77,0,0,0,.616.2334c1.5918.4464,3.3283-.2211,5.16-1.9843a24.5089,24.5089,0,0,1,13.9462-6.14,1.2751,1.2751,0,0,0-.1872-2.5434,27.2936,27.2936,0,0,0-15.5271,6.8465c-.78.7506-1.8818,1.5969-2.7032,1.3662-1.85-.5207-3.2225-5.69-4.3152-9.842-.3583-1.36-.7284-2.7666-1.1192-4.0564a1.2748,1.2748,0,0,0-2.44.7393c.377,1.2448.7412,2.6281,1.0932,3.9659C1232.2154,325.4378,1233.5025,330.3289,1236.334,331.6943Z"/><path class="cls-132" d="M1202.6785,335.5247a1.2465,1.2465,0,0,0,.2374.0868,1.2744,1.2744,0,0,0,1.5521-.9168,9.7092,9.7092,0,0,0-.2876-5.1657c-.2-.7469-.406-1.5191-.231-1.7674.1736-.2462,1.0017-.8542,4.9342-1.1788,6.8461-.5656,10.2815-1.7147,11.858-3.9656,1.3634-1.9464.9371-4.3111.498-5.92a5.6263,5.6263,0,0,1,2.29-6.089c1.3215-.7654,2.7046-.4822,3.9946.8185.98.9858,1.7479,3.261,2.2407,4.8869a1.2748,1.2748,0,1,0,2.44-.7393c-.9207-3.0394-1.8063-4.8732-2.8718-5.945-2.1038-2.1176-4.75-2.576-7.08-1.2287a8.2049,8.2049,0,0,0-3.473,8.9682c.49,1.794.4509,2.9618-.1267,3.7859-1.0459,1.4936-4.2169,2.4108-9.98,2.8869-3.9384.3255-5.9113.9777-6.8089,2.2524-.8612,1.2223-.4983,2.5806-.1476,3.8933a7.2532,7.2532,0,0,1,.282,3.872A1.2753,1.2753,0,0,0,1202.6785,335.5247Z"/></g></g><g id="_Group_7" data-name="&lt;Group&gt;"><g id="R-ICO-013121_3" data-name="R-ICO-013121 " class="cls-24"><circle class="cls-133" cx="1099.7586" cy="334.9179" r="39.304"/><path class="cls-26" d="M1099.7586,375.6669a40.749,40.749,0,1,1,40.749-40.749A40.7943,40.7943,0,0,1,1099.7586,375.6669Zm0-78.608a37.859,37.859,0,1,0,37.859,37.859A37.8959,37.8959,0,0,0,1099.7586,297.0589Z"/></g><g id="Genetic_data-3" data-name="Genetic_data"><path class="cls-134" d="M1109.4233,331.0616c1.6386,2.089,1.6272,5.773-.0379,10.9762a1.2748,1.2748,0,1,1-2.4283-.777c1.4876-4.6494,1.5356-7.8308.1322-8.9555-1.6537-1.3282-5.7977-.2819-11.0854,2.7992-3.13,1.8236-4.9219,4.269-5.3264,7.2676-.5975,4.4285,1.9171,9.25,4.6745,12.0667.6566.67,1.1312.6277,1.4717.5157,1.5317-.5031,3.5037-3.7744,4.1523-8.377a1.275,1.275,0,0,1,2.525.3562c-.7519,5.3378-3.1157,9.5345-5.881,10.4435a3.8594,3.8594,0,0,1-4.0893-1.1542c-3.1931-3.26-6.0924-8.91-5.38-14.1917.508-3.7644,2.78-6.9217,6.57-9.13,6.5145-3.7955,11.3437-4.6892,13.9656-2.584A4.6281,4.6281,0,0,1,1109.4233,331.0616Z"/><path class="cls-135" d="M1099.9022,330.9716a16.0688,16.0688,0,0,1,2.005,3.4437,23.3,23.3,0,0,1,1.5938,12.5184,1.275,1.275,0,0,1-2.525-.3562,20.7151,20.7151,0,0,0-1.4011-11.13c-2.1874-4.9459-4.7356-5.4453-8.5916-6.1986-4.0527-.7908-9.0957-1.7756-15.43-7.9363-1.4694-1.4294-3.3323-3.5514-2.5559-5.4823.52-1.2911,2.0088-1.954,4.4262-1.97a1.2748,1.2748,0,1,1,.0165,2.55c-1.6772.0111-2.066.3715-2.0893.3956a3.2537,3.2537,0,0,0,.7487,1.3344,13.7344,13.7344,0,0,0,1.2313,1.3445c5.79,5.6315,10.2265,6.4974,14.1406,7.2615C1094.66,327.3682,1097.513,327.9258,1099.9022,330.9716Z"/><path class="cls-136" d="M1092.6122,317.5558a1.2751,1.2751,0,0,1-1.435,1.9875c-5.5007-1.9824-10.6359-3.1533-13.7366-3.1333a1.2748,1.2748,0,1,1-.0165-2.55c3.3847-.0224,8.8492,1.2051,14.6182,3.2835A1.2745,1.2745,0,0,1,1092.6122,317.5558Z"/><path class="cls-137" d="M1116.5805,309.169c1.7606,2.2445,1.7724,6.5337,1.7867,11.7568.0161,6,.0342,12.8018,2.9278,16.7543a15.57,15.57,0,0,0,4.4694,4.4577,1.2754,1.2754,0,0,1-1.2312,2.2339,17.5233,17.5233,0,0,1-5.2955-5.1854c-3.3841-4.6222-3.4037-11.8641-3.421-18.2532-.0129-4.7035-.0248-9.5725-1.6692-10.5782-.892-.5494-2.5334.0655-3.7525.6779-5.552,2.7873-4.6212,6.5293-3.8736,9.5361.376,1.5122.7308,2.9409-.3348,3.8111-1.13.9231-2.8889.5079-7.8405-1.8519-2.292-1.0928-4.7041-2.0967-7.1689-2.9848a1.2752,1.2752,0,0,1,.8651-2.3993c2.543.9165,5.0329,1.9537,7.4013,3.082a29.1384,29.1384,0,0,0,4.8419,1.9859c-.0626-.3179-.1594-.7062-.2392-1.0271-.7586-3.05-2.17-8.7285,5.2045-12.431,2.6529-1.332,4.6919-1.5193,6.2328-.5716A4.1668,4.1668,0,0,1,1116.5805,309.169Z"/><path class="cls-138" d="M1124.9241,320.1581a4.7542,4.7542,0,0,1,.8415,3.2354,1.2747,1.2747,0,1,1-2.5467-.1155,2.0408,2.0408,0,0,0-.4326-1.68c-.5124-.4193-1.7627-.4234-3.4311-.01a8.5743,8.5743,0,0,0-1.8691.6353,32.4025,32.4025,0,0,0,5.4788,2.9391c5.9328,2.7834,12.6572,5.9386,11.61,10.689-.7321,3.3261-2.2275,7.5728-5.1925,8.9159a5.2208,5.2208,0,0,1-4.8489-.3958,1.2754,1.2754,0,0,1,1.2312-2.2339,2.7718,2.7718,0,0,0,2.5658.3068c1.54-.6978,2.9085-3.3006,3.7548-7.1415.6043-2.7587-5.8982-5.8125-10.203-7.832-4.5812-2.15-7.346-3.4472-7.1407-5.5431.1614-1.6463,2.1131-2.347,4-2.8143,2.6019-.6452,4.4531-.4774,5.6609.5122A3.3922,3.3922,0,0,1,1124.9241,320.1581Z"/><path class="cls-139" d="M1125.4957,322.5492a1.2667,1.2667,0,0,1,.27.8443c-.1245,2.7478-1.61,6.5431-3.8025,11.3967-.4075.9021-.8275,1.8165-1.2489,2.7331-1.3581,2.9558-2.7626,6.0124-3.7346,8.6722-1.1132,3.0475-.634,5.8371,1.3389,7.8533,1.9075,1.9477,4.9595,2.8648,7.1,2.1331a2.8728,2.8728,0,0,0,2.0322-2.5752,8.3345,8.3345,0,0,0,.0693-1.29,8.2979,8.2979,0,0,0-1.0062.64,1.2748,1.2748,0,1,1-1.49-2.069c1.2557-.9048,2.7037-1.7326,3.9248-1.0151,1.2422.7283,1.22,2.4455,1.0343,4.03a5.442,5.442,0,0,1-3.7394,4.6918c-3.0572,1.0452-7.1563-.1161-9.747-2.7612-2.6583-2.7218-3.3593-6.55-1.9121-10.5127,1.007-2.7564,2.4332-5.8606,3.8131-8.8625.4184-.9111.8367-1.821,1.2419-2.718,1.7922-3.9679,3.4667-7.9821,3.58-10.4623a1.2747,1.2747,0,0,1,2.2768-.7288Z"/><path class="cls-140" d="M1126.7715,351.1349c.0107.0137.0217.0278.0318.042a1.275,1.275,0,0,1-.29,1.78c-1.3784.9931-3.3187,2.7292-5.774,4.9264-3.3765,3.0214-7.5789,6.782-12.8587,10.9235-4.5477,3.5673-8.38,4.7632-11.3911,3.5549-2.5487-1.0228-4.266-3.7722-4.8353-7.7434a1.2751,1.2751,0,1,1,2.5245-.3618c.2511,1.7552,1.0078,4.8361,3.2607,5.7386,2.0748.8327,5.1413-.2719,8.8674-3.1947,5.2148-4.0905,9.3828-7.82,12.732-10.8173,2.5117-2.2477,4.496-4.0231,5.9845-5.0952A1.2747,1.2747,0,0,1,1126.7715,351.1349Z"/><path class="cls-141" d="M1097.6631,343.3015a3.7634,3.7634,0,0,1,.36.5517c.777,1.4593.4969,3.2984-.833,5.4657a24.5086,24.5086,0,0,0-3.0108,14.9377,1.2751,1.2751,0,0,1-2.5245.3618,27.2937,27.2937,0,0,1,3.362-16.6331c.5661-.9225,1.1567-2.18.7555-2.9331-.9048-1.6956-6.2479-1.929-10.5379-2.1071-1.4053-.0586-2.8584-.1189-4.2019-.2245a1.2748,1.2748,0,0,1,.1995-2.5418c1.2967.1017,2.7259.1612,4.1081.2185C1090.67,340.6185,1095.723,340.8282,1097.6631,343.3015Z"/><path class="cls-142" d="M1094.1963,309.6066a1.2476,1.2476,0,0,1,.1357.2133,1.2744,1.2744,0,0,1-.5632,1.7124,9.7079,9.7079,0,0,1-5.1073.8255c-.7724-.0351-1.5709-.0712-1.7759.1529-.2034.2223-.62,1.1614-.0946,5.0722.9138,6.8084.5271,10.41-1.3339,12.4322-1.6092,1.7486-4.01,1.8387-5.6763,1.7544a5.6262,5.6262,0,0,0-5.4573,3.5407c-.4646,1.4548.1082,2.7451,1.6551,3.7266,1.1727.746,3.56,1.0089,5.2533,1.142a1.2748,1.2748,0,1,1-.1995,2.5418c-3.1661-.2483-5.147-.7206-6.4221-1.5318-2.519-1.6015-3.5335-4.0877-2.7166-6.6528a8.2045,8.2045,0,0,1,8.0162-5.3132c1.8572.094,2.99-.194,3.6709-.9346,1.2349-1.3416,1.4516-4.6354.6825-10.3663-.5256-3.9168-.3111-5.9835.7418-7.1333,1.0095-1.103,2.414-1.0395,3.7714-.9781a7.25,7.25,0,0,0,3.8424-.5538A1.2753,1.2753,0,0,1,1094.1963,309.6066Z"/></g></g><g id="TOP-5" data-name="TOP" class="cls-36"><path id="BG-7" data-name="BG" class="cls-143" d="M1221.9747,267.1425a76.25,76.25,0,0,0-57.6129,26.2788,76.5,76.5,0,1,0,0,100.4426,76.4707,76.4707,0,1,0,57.6129-126.7214Z"/><g id="INNER_SHADOWS-2" data-name="INNER_SHADOWS"><g class="cls-144"><circle class="cls-145" cx="1221.9748" cy="343.6426" r="76.5001"/></g><g class="cls-146"><circle class="cls-147" cx="1106.7489" cy="343.6426" r="76.5001"/></g></g><g id="LIGHTS-2" data-name="LIGHTS"><circle class="cls-148" cx="1106.7488" cy="343.6426" r="76.5"/><circle class="cls-149" cx="1221.9748" cy="343.6426" r="76.5"/></g><g id="MIDDLE_SHADOWS"><g class="cls-150"><ellipse class="cls-151" cx="1164.3619" cy="343.6425" rx="30.9069" ry="50.2212"/></g><g class="cls-152"><ellipse class="cls-153" cx="1163.8927" cy="340.5183" rx="50.2212" ry="13.2618" transform="translate(721.7044 1469.7076) rotate(-84.9226)"/></g></g></g><g id="OVERLAY-R-HSA-68884"><rect class="cls-40" x="1045.9048" y="523.4815" width="236.914" height="30" rx="8"/><text class="cls-41" transform="translate(1055.6879 541.3701)">MITOTIC TELOPHASE / CYTOKINESIS</text><g><g id="OVERLAYBASE-R-HSA-68884" fill="#FFFFFF" stroke="#000000" stroke-width="0.5"><rect x="1045.9048" y="523.4815" width="236.914" height="30" rx="8"/></g><g id="OVERLAYCLONE-R-HSA-68884" clip-path="url(#CLIPPINGPATH-R-HSA-68884)" fill="rgba(194,194,194,0.9)"><rect x="1045.9048" y="523.4815" width="236.914" height="30" rx="8"/></g><text class="cls-41 ST-OVERLAY-TEXT" transform="translate(1055.6879 541.3701)">MITOTIC TELOPHASE / CYTOKINESIS</text></g></g><g id="ANALINFO-R-HSA-68884" data-name="ANALINFO" class="cls-42 ST-ANALYSIS-INFO"><rect class="cls-43" x="1045.9048" y="553.4815" width="236.9138" height="20" rx="8"/><text id="_Group_8" data-name="&lt;Group&gt;" class="cls-44" alignment-baseline="middle" dominant-baseline="middle" text-anchor="middle" x="1164.3616943359375" y="563.4815063476562">Hit: 10/15 - FDR: 8.03E-1</text></g></g></svg>